<svg width="62" height="68" viewBox="0 0 62 68" fill="none" xmlns="http://www.w3.org/2000/svg">
<path d="M7.98595 6.32036C8.16356 3.13645 8.91409 1.75191 11.0664 0.64008C13.3822 -0.556598 17.0348 0.00029993 21.3327 2.20578C23.1839 3.15617 23.3724 3.17552 26.6167 2.75401C30.9291 2.19354 36.4807 2.19552 40.4609 2.75914C43.4708 3.18538 43.6684 3.16408 45.5241 2.21171C51.6248 -0.918914 56.4413 -0.714077 58.1854 2.75006C59.0559 4.47917 59.2176 8.9659 58.5426 12.6665C58.1683 14.718 58.208 14.9742 59.1096 16.3204C65.4531 25.7932 60.8824 41.1481 50.0125 46.8783C49.1807 47.3169 48.4798 47.5883 47.9085 47.8093C46.1543 48.4881 45.6218 48.6942 46.2666 51.8185C46.5771 53.3213 46.951 57.0576 47.098 60.1219C47.3637 65.6608 47.3597 65.6995 46.4011 66.8295C45.0962 68.3666 43.2155 68.3926 41.9411 66.891C41.1099 65.9118 41.0288 65.4494 41.0288 61.6714C41.0288 56.0883 40.4249 52.3774 38.998 49.1974C37.3012 45.4132 38.5591 44.0022 42.4395 43.1566C47.8331 41.9808 52.0457 38.6077 54.3937 33.5846C56.6262 28.8098 56.9626 22.2114 52.9266 18.1983C51.7788 16.8162 51.6989 15.5642 52.5185 11.7891C52.8247 10.3781 53.0816 8.55781 53.0892 7.74357C53.1008 6.45769 52.9852 6.26352 52.2059 6.26352C51.7126 6.26352 49.8282 6.99053 48.0189 7.87895L45.131 9.29737C44.8684 9.42629 44.5746 9.47587 44.2849 9.44218C36.9416 8.58804 29.964 8.57484 22.5848 9.44552C22.2939 9.47983 21.9988 9.43025 21.7354 9.30068L18.849 7.88133C17.0394 6.99131 15.1551 6.26352 14.6621 6.26352C13.522 6.26352 13.5049 7.11643 14.544 12.1838C15.1788 15.2785 15.606 15.9681 13.7709 18.4427C11.0204 22.1519 10.3334 26.7578 11.8083 31.5972C13.6673 37.6955 18.2196 41.8154 24.6196 43.1899C28.4776 44.0186 29.486 45.0998 28.0128 49.5829C26.8531 53.1108 26.1198 54.0202 24.4345 54.0202C22.167 54.0202 20.7465 52.0296 21.5282 49.9467C21.8725 49.0287 21.7701 48.9307 19.6459 48.1456C13.1614 45.7498 8.20172 40.38 5.93416 33.2993C4.1815 27.827 4.95267 20.7042 7.76435 16.399C8.72168 14.9331 8.7365 14.8088 8.28975 12.0026C8.03698 10.414 7.90027 7.85726 7.98595 6.32036Z" fill="#A4B2AC"/>
<path d="M5.60416 46.3658C4.6671 44.9567 2.768 44.5758 1.36239 45.5155C-0.0431821 46.4548 -0.423022 48.3588 0.514037 49.768C1.20584 50.8085 2.03346 51.6631 2.73628 52.3675C2.86585 52.4976 2.99175 52.623 3.11468 52.7453C3.7034 53.3317 4.22321 53.8493 4.74529 54.4639C5.90001 55.8227 7.05198 57.6529 7.70668 60.9348C7.99831 62.3966 9.0464 63.1842 9.62714 63.5282C10.2569 63.9011 10.9451 64.121 11.5114 64.2642C12.6697 64.5571 14.076 64.7092 15.4105 64.7978C16.8755 64.8953 18.463 64.9269 19.8825 64.9355C19.8835 66.628 21.2525 68 22.9412 68C24.6305 68 26 66.6271 26 64.9334V61.8667C26 60.173 24.6305 58.8001 22.9412 58.8001C22.6529 58.8001 22.3409 58.801 22.0105 58.8022C20.2154 58.8078 17.8756 58.8148 15.8149 58.6781C14.8211 58.6121 14.0043 58.5186 13.4052 58.4042C12.4828 54.7736 10.9925 52.358 9.40226 50.4865C8.69929 49.6594 7.97136 48.9357 7.37927 48.3469C7.26842 48.2368 7.16234 48.1313 7.06204 48.0307C6.37886 47.3459 5.93197 46.8589 5.60416 46.3658Z" fill="#A4B2AC"/>
</svg>
