<svg width="68" height="68" viewBox="0 0 68 68" fill="none" xmlns="http://www.w3.org/2000/svg">
<path d="M52.5 19C54.433 19 56 17.433 56 15.5C56 13.567 54.433 12 52.5 12C50.567 12 49 13.567 49 15.5C49 17.433 50.567 19 52.5 19Z" fill="#A4B2AC"/>
<path d="M33.5 17C30.2366 17 27.0465 17.9677 24.3331 19.7808C21.6197 21.5938 19.5048 24.1707 18.256 27.1857C17.0071 30.2007 16.6804 33.5183 17.3171 36.719C17.9537 39.9197 19.5252 42.8597 21.8327 45.1673C24.1403 47.4748 27.0803 49.0463 30.281 49.6829C33.4817 50.3196 36.7993 49.9928 39.8143 48.744C42.8293 47.4952 45.4062 45.3803 47.2192 42.6669C49.0323 39.9535 50 36.7634 50 33.5C50 29.1239 48.2616 24.9271 45.1673 21.8327C42.0729 18.7384 37.8761 17 33.5 17ZM33.5 44.2105C31.3817 44.2105 29.3109 43.5823 27.5496 42.4054C25.7883 41.2285 24.4155 39.5558 23.6048 37.5987C22.7942 35.6416 22.5821 33.4881 22.9953 31.4105C23.4086 29.3329 24.4287 27.4244 25.9266 25.9266C27.4244 24.4287 29.3329 23.4086 31.4105 22.9953C33.4881 22.5821 35.6416 22.7942 37.5987 23.6048C39.5558 24.4155 41.2285 25.7883 42.4054 27.5496C43.5823 29.3109 44.2105 31.3817 44.2105 33.5C44.2105 36.3406 43.082 39.0648 41.0734 41.0734C39.0648 43.082 36.3406 44.2105 33.5 44.2105Z" fill="#A4B2AC"/>
<path d="M34 6.12623C43.0783 6.12623 44.1538 6.1608 47.7388 6.32457C49.8949 6.35023 52.0305 6.74624 54.0523 7.4953C55.5186 8.06107 56.8502 8.92748 57.9615 10.0388C59.0728 11.1501 59.9392 12.4817 60.505 13.9479C61.254 15.9698 61.6501 18.1054 61.6757 20.2614C61.8392 23.8465 61.874 24.922 61.874 34.0003C61.874 43.0786 61.8395 44.1541 61.6757 47.7391C61.6501 49.8952 61.254 52.0307 60.505 54.0526C59.9392 55.5189 59.0728 56.8505 57.9615 57.9618C56.8502 59.0731 55.5186 59.9395 54.0523 60.5053C52.0305 61.2543 49.8949 61.6503 47.7388 61.676C44.1541 61.8395 43.0791 61.8743 34 61.8743C24.9209 61.8743 23.8459 61.8398 20.2612 61.676C18.1051 61.6503 15.9695 61.2543 13.9476 60.5053C12.4814 59.9395 11.1498 59.0731 10.0385 57.9618C8.92719 56.8505 8.06079 55.5189 7.49502 54.0526C6.74596 52.0307 6.34995 49.8952 6.32428 47.7391C6.1608 44.1541 6.12595 43.0786 6.12595 34.0003C6.12595 24.922 6.16052 23.8465 6.32428 20.2614C6.34995 18.1054 6.74596 15.9698 7.49502 13.9479C8.06076 12.4816 8.92715 11.15 10.0385 10.0386C11.1498 8.92727 12.4814 8.06082 13.9476 7.49502C15.9695 6.74596 18.1051 6.34995 20.2612 6.32428C23.8462 6.1608 24.9217 6.12623 34 6.12623ZM34 0C24.7662 0 23.6082 0.0390995 19.9818 0.204566C17.1616 0.261185 14.3715 0.79557 11.73 1.785C9.47108 2.65855 7.41958 3.99443 5.70701 5.70701C3.99443 7.41958 2.65855 9.47108 1.785 11.73C0.795413 14.3719 0.261025 17.1626 0.204566 19.9832C0.0390995 23.6082 0 24.7662 0 34C0 43.2338 0.0390995 44.3918 0.204566 48.0182C0.261058 50.8388 0.795445 53.6295 1.785 56.2714C2.65855 58.5303 3.99443 60.5818 5.70701 62.2944C7.41958 64.007 9.47108 65.3429 11.73 66.2164C14.3719 67.206 17.1626 67.7404 19.9832 67.7969C23.6082 67.9609 24.7662 68 34 68C43.2338 68 44.3918 67.9609 48.0182 67.7954C50.8388 67.7389 53.6295 67.2046 56.2714 66.215C58.5303 65.3414 60.5818 64.0056 62.2944 62.293C64.007 60.5804 65.3429 58.5289 66.2164 56.27C67.206 53.628 67.7404 50.8374 67.7969 48.0168C67.9609 44.3918 68 43.2338 68 34C68 24.7662 67.9609 23.6082 67.7954 19.9818C67.7388 17.1616 67.2044 14.3715 66.215 11.73C65.3413 9.47134 64.0053 7.42012 62.2928 5.7078C60.5802 3.99547 58.5288 2.65981 56.27 1.78642C53.628 0.796861 50.8374 0.262475 48.0168 0.205983C44.3918 0.0391001 43.2338 0 34 0Z" fill="#A4B2AC"/>
</svg>
