<svg width="400" height="300" viewBox="0 0 400 300" fill="none" xmlns="http://www.w3.org/2000/svg">
<path d="M196.24 288.6L23.7402 186.65C18.2502 183.57 13.5402 178.5 18.8902 175.19L192 75.41C194.6 73.8 198.54 72.75 201.18 74.28L382.28 179.37C387.77 182.56 388.76 191.47 383.28 194.66L219 288.44C215.548 290.445 211.633 291.514 207.641 291.542C203.65 291.57 199.72 290.556 196.24 288.6Z" fill="#E5C687"/>
<path d="M336.42 190.38C326.91 196.03 317.22 201.38 307.81 207.17L324.69 216.82C329.75 213.36 348.37 203.67 353.22 199.92L336.42 190.38Z" fill="url(#paint0_linear_67_16)"/>
<path d="M273 242.28L146.92 170.73L80.71 205.53L210.14 279.53C221.3 271.89 262.32 250.56 273 242.28Z" fill="url(#paint1_linear_67_16)"/>
<path d="M216.13 183.32C216.13 183.32 215.65 186.32 211.36 189.02C207.07 191.72 198.49 193.76 198.49 197.15C198.49 200.54 200.97 202.34 204.13 202.34C207.29 202.34 217.68 196.47 221.74 195.79C224.716 195.16 227.6 194.152 230.32 192.79C230.32 192.79 231 181.98 228.74 177.69C226.48 173.4 216.13 183.32 216.13 183.32Z" fill="#383838"/>
<path d="M239.14 201C239.14 201 230.14 215.45 228.98 217.93C227.98 220.13 225.98 224.5 227.17 226.51C229.57 230.51 238.84 227.51 241.17 224.7C244.33 220.86 245.69 212.96 246.81 212.06C247.922 211.067 248.978 210.012 249.97 208.9L251.64 197.2" fill="#383838"/>
<path d="M210.15 128.64L216.15 183.32C216.15 183.32 223.73 187.71 232.15 181.72V147.4L237.34 202.08C237.34 202.08 242.13 209.26 251.34 204.47L254.93 135.82L210.23 119.82" fill="#BE713D"/>
<path d="M143.16 101.31H140.98C138.677 101.31 136.81 103.177 136.81 105.48V176.33C136.81 178.633 138.677 180.5 140.98 180.5H143.16C145.463 180.5 147.33 178.633 147.33 176.33V105.48C147.33 103.177 145.463 101.31 143.16 101.31Z" fill="#A98949"/>
<path d="M228.49 198.4C228.49 195.495 226.135 193.14 223.23 193.14C220.325 193.14 217.97 195.495 217.97 198.4V266.94C217.97 269.845 220.325 272.2 223.23 272.2C226.135 272.2 228.49 269.845 228.49 266.94V198.4Z" fill="#A98949"/>
<path d="M272.99 163.92C272.99 161.015 270.635 158.66 267.73 158.66C264.825 158.66 262.47 161.015 262.47 163.92V242.28C262.47 245.185 264.825 247.54 267.73 247.54C270.635 247.54 272.99 245.185 272.99 242.28V163.92Z" fill="#A98949"/>
<path d="M102.8 120.29H100.62C98.3172 120.29 96.4502 122.157 96.4502 124.46V195.31C96.4502 197.613 98.3172 199.48 100.62 199.48H102.8C105.103 199.48 106.97 197.613 106.97 195.31V124.46C106.97 122.157 105.103 120.29 102.8 120.29Z" fill="#A98949"/>
<path d="M93.29 117.73V128.41L219.61 199.58L278.34 165.97V155.69" fill="#A19F69"/>
<path d="M93.29 117.73L152.6 81.75L278.34 155.69L219.61 190.09L93.29 117.73Z" fill="#D7C560"/>
<path d="M113.3 101.5L114.49 116.65C114.575 117.808 114.931 118.929 115.531 119.923C116.13 120.917 116.955 121.755 117.94 122.37C123.341 125.646 129.575 127.289 135.89 127.1C143.77 126.91 148.5 124.47 151.04 122.51C152.574 121.314 153.574 119.56 153.82 117.63L156 101.5" fill="#A19F69"/>
<path d="M117.18 106.23C115.43 106.56 111.87 106.84 110.76 105C110.383 104.036 110.383 102.964 110.76 102C111.25 100.59 112.44 100.6 113.76 100.79C115.35 101.02 116.03 98.59 114.43 98.36C112.63 98.1 110.7 97.97 109.36 99.44C108.803 100.165 108.406 100.999 108.192 101.888C107.978 102.777 107.954 103.701 108.12 104.6C108.79 109.04 114.48 109.29 117.92 108.6C119.45 108.36 118.77 105.93 117.18 106.23Z" fill="#A19F69"/>
<path d="M160.79 98.72C160.02 94.37 155.31 93.83 151.72 94.45C150.12 94.72 150.8 97.15 152.39 96.88C154.39 96.54 157.32 96.41 158.2 98.71C158.53 99.56 158.64 100.53 157.86 100.97C156.84 101.457 155.695 101.617 154.58 101.43C152.99 101.21 152.31 103.64 153.91 103.86C155.844 104.212 157.841 103.883 159.56 102.93C161.06 102 161.07 100.28 160.79 98.72Z" fill="#A19F69"/>
<path d="M134.64 113.52C146.426 113.52 155.98 108.138 155.98 101.5C155.98 94.8615 146.426 89.48 134.64 89.48C122.854 89.48 113.3 94.8615 113.3 101.5C113.3 108.138 122.854 113.52 134.64 113.52Z" fill="#F5E3D7"/>
<path d="M134.64 109.7C144.095 109.7 151.76 106.029 151.76 101.5C151.76 96.9713 144.095 93.3 134.64 93.3C125.185 93.3 117.52 96.9713 117.52 101.5C117.52 106.029 125.185 109.7 134.64 109.7Z" fill="#E5C687"/>
<path d="M241.52 160.73C249.848 160.73 256.6 153.978 256.6 145.65C256.6 137.322 249.848 130.57 241.52 130.57C233.191 130.57 226.44 137.322 226.44 145.65C226.44 153.978 233.191 160.73 241.52 160.73Z" fill="#CFE872"/>
<path d="M226.66 144.83C231.55 144.99 236.1 147 237.35 152.11C238 154.79 237.96 157.98 238.58 160.43C239.542 160.621 240.52 160.718 241.5 160.72C241.76 160.72 242.01 160.72 242.26 160.72C241.422 159.685 240.766 158.515 240.32 157.26C239.01 153.73 238.87 149.65 236.86 146.4C234.31 142.29 230.44 141.72 226.7 142.83C226.577 143.491 226.497 144.159 226.46 144.83H226.66Z" fill="#3E4520"/>
<path d="M234.14 155C233.79 150.44 231.14 148.54 226.67 148.4C227.084 150.64 228 152.758 229.349 154.594C230.698 156.429 232.446 157.936 234.46 159C234.3 157.65 234.24 156.31 234.14 155Z" fill="#3E4520"/>
<path d="M246.62 138.88C249.5 140.57 252.14 142.16 254.26 144.83C255.099 145.88 255.801 147.033 256.35 148.26C256.772 145.937 256.641 143.548 255.966 141.285C255.291 139.023 254.091 136.952 252.465 135.241C250.838 133.53 248.831 132.227 246.606 131.438C244.381 130.649 242.001 130.396 239.66 130.7C236.58 133.08 244.57 137.67 246.62 138.88Z" fill="#3E4520"/>
<path d="M253 149.2C252.098 147.521 250.867 146.041 249.38 144.85C251.251 148.477 252.095 152.548 251.82 156.62C252.465 156.026 253.057 155.377 253.59 154.68C254.026 152.84 253.817 150.905 253 149.2Z" fill="#3E4520"/>
<path d="M247.85 158.9C249.6 152.23 246.51 144.72 241.43 140.24C238.313 137.665 234.581 135.943 230.6 135.24C229.58 136.299 228.721 137.502 228.05 138.81C229.535 138.569 231.053 138.627 232.515 138.983C233.976 139.338 235.352 139.984 236.56 140.88C239.42 142.99 240.89 146.16 241.84 149.47C242.71 152.47 243.14 158.87 246.84 159.72C247.16 159.6 247.45 159.44 247.75 159.29C247.77 159.157 247.803 159.026 247.85 158.9Z" fill="#3E4520"/>
<path d="M233.83 170.33C239.132 170.33 243.43 166.032 243.43 160.73C243.43 155.428 239.132 151.13 233.83 151.13C228.528 151.13 224.23 155.428 224.23 160.73C224.23 166.032 228.528 170.33 233.83 170.33Z" fill="#FF1710"/>
<path d="M228.84 152.54C226.74 153.801 225.202 155.817 224.541 158.176C223.881 160.534 224.148 163.056 225.287 165.224C226.427 167.392 228.353 169.042 230.67 169.835C232.988 170.628 235.521 170.505 237.75 169.49C231.6 165.59 227.05 159.06 228.84 152.54Z" fill="#B71D1D"/>
<path d="M229.21 171.9C229.21 171.9 230.32 175.75 228.21 176.9C226.1 178.05 202.56 163 204.11 161C205.66 159 225.6 168.82 229.21 171.9Z" fill="#FF780B"/>
<path d="M215.14 171.64C215.14 171.64 216.25 175.49 214.14 176.64C212.03 177.79 188.5 162.73 190 160.73C191.5 158.73 211.53 168.55 215.14 171.64Z" fill="#FF780B"/>
<path d="M226.18 163.51C226.18 163.51 227.29 167.36 225.18 168.51C223.07 169.66 199.55 154.6 201.09 152.59C202.63 150.58 222.57 160.43 226.18 163.51Z" fill="#FF780B"/>
<path d="M189.64 147.08L199.58 141.26C201.722 140.001 203.499 138.205 204.733 136.048C205.967 133.891 206.616 131.45 206.616 128.965C206.616 126.48 205.967 124.039 204.733 121.882C203.499 119.725 201.722 117.929 199.58 116.67L190.35 111.24C188.237 109.993 185.839 109.312 183.387 109.263C180.934 109.214 178.511 109.799 176.35 110.96L165.54 116.75C163.271 117.97 161.374 119.782 160.052 121.994C158.73 124.205 158.032 126.733 158.032 129.31C158.032 131.886 158.73 134.415 160.052 136.626C161.374 138.838 163.271 140.65 165.54 141.87L175.65 147.33C177.807 148.494 180.227 149.083 182.678 149.039C185.128 148.995 187.526 148.32 189.64 147.08Z" fill="#F7F7F7"/>
<path d="M194.36 89.88C193.87 90.27 193.36 90.67 192.92 91.08C193.28 90.56 193.66 90.08 194.01 89.51C194.46 88.82 193.35 88.18 192.91 88.87L192.64 89.27H192.56C192.544 89.1787 192.509 89.0918 192.457 89.0145C192.406 88.9373 192.339 88.8713 192.262 88.8207C192.184 88.7702 192.097 88.736 192.005 88.7204C191.914 88.7048 191.82 88.7081 191.73 88.73C191.85 88.53 191.98 88.33 192.09 88.13C192.154 88.0294 192.19 87.9131 192.193 87.7936C192.195 87.6742 192.165 87.5564 192.105 87.4531C192.045 87.3497 191.958 87.2649 191.853 87.2079C191.748 87.1509 191.629 87.124 191.51 87.13C191.8 86.69 192.1 86.25 192.37 85.8C192.76 85.16 191.89 84.55 191.37 85.03C190.85 85.51 190.22 86.13 189.67 86.69L189.73 86.58C189.782 86.4829 189.807 86.3741 189.804 86.2642C189.802 86.1543 189.771 86.0469 189.715 85.9524C189.658 85.858 189.579 85.7796 189.483 85.7249C189.388 85.6701 189.28 85.6409 189.17 85.64H189C188.935 85.6537 188.874 85.6809 188.82 85.72H188.76C188.727 85.7433 188.697 85.7701 188.67 85.8C188.62 85.6953 188.544 85.6056 188.448 85.5399C188.353 85.4742 188.242 85.4348 188.126 85.4257C188.01 85.4166 187.895 85.438 187.79 85.4879C187.685 85.5379 187.596 85.6144 187.53 85.71L183.43 92.22C182.12 94.3 180.79 97.39 178.98 99.08C177.75 100.23 172.64 101.15 173.38 103.92C173.408 104.028 173.465 104.127 173.544 104.206C173.623 104.285 173.722 104.342 173.83 104.37L174.19 104.44C173.869 104.779 173.635 105.191 173.508 105.64C173.381 106.09 173.364 106.563 173.46 107.02C173.481 107.108 173.519 107.19 173.573 107.263C173.626 107.336 173.693 107.397 173.77 107.444C173.848 107.49 173.933 107.521 174.023 107.534C174.112 107.547 174.203 107.542 174.29 107.52C174.124 108.227 174.067 108.956 174.12 109.68C174.115 109.946 174.198 110.206 174.355 110.421C174.512 110.636 174.735 110.794 174.99 110.87C175.237 110.922 175.494 110.879 175.71 110.75C175.82 112.46 176.52 113.91 178.62 113.85C178.71 113.847 178.799 113.825 178.88 113.785C178.961 113.744 179.032 113.687 179.089 113.617C179.146 113.547 179.187 113.465 179.21 113.378C179.232 113.29 179.236 113.199 179.22 113.11C179.336 113.006 179.41 112.864 179.43 112.71C179.54 111.78 179.28 110.81 179.43 109.9C179.79 107.9 181.98 107.9 183.53 108.68C183.91 108.87 184.53 108.68 184.53 108.13L184.32 106.39C184.408 106.316 184.474 106.219 184.51 106.11C186.504 100.014 190.271 94.6525 195.33 90.71C195.91 90.28 195 89.38 194.36 89.88Z" fill="#FFC197"/>
<path d="M211.37 74.87C211.37 74.87 196.65 91.28 195.3 92.63C195.3 92.63 186 87.63 184.64 88.42C184.64 88.42 207.99 53.95 214.58 51.8C221.17 49.65 217.12 73.17 211.37 74.87Z" fill="#F7F7F7"/>
<path d="M213.11 80.29C213.11 80.29 211.68 66.13 211.68 65.29C211.68 64.45 213.55 51.79 216.07 51.79C218.59 51.79 226.22 47.25 237.53 53.6C248.84 59.95 250.79 65 251.39 68.8C251.99 72.6 254.2 96.12 254.2 102.62C254.2 109.12 235.66 110.45 235.66 110.45" fill="#F7F7F7"/>
<path d="M218.58 51.8C218.58 51.8 216.58 59.66 216.58 65.21C216.595 68.7099 216.93 72.201 217.58 75.64L228.35 79.43C228.35 79.43 227.27 54.64 239.73 51.8L242.73 54.37C242.73 54.37 235.01 54.78 232.98 63.58C231.763 69.0946 231.506 74.778 232.22 80.38L244.76 86.48L254.2 95V137.12L246.75 138.47L217.9 121.67C217.9 121.67 218.44 101.35 217.9 99.46C217.36 97.57 212.84 80.55 213.11 80.27C213.66 78.7394 214.127 77.1805 214.51 75.6C214.51 75.6 213.1 56.48 216.07 51.78L218.58 51.8Z" fill="#A19F69"/>
<path d="M223.24 111.15C222.31 111.76 221.35 112.35 220.4 112.94C220.63 112.7 220.89 112.49 221.1 112.23C221.174 112.141 221.222 112.034 221.24 111.92C221.663 111.432 222.051 110.914 222.4 110.37C222.477 110.256 222.509 110.117 222.49 109.98L222.95 109.6C223.03 109.532 223.09 109.443 223.123 109.343C223.157 109.244 223.163 109.137 223.14 109.034C223.117 108.931 223.067 108.837 222.995 108.76C222.923 108.684 222.831 108.628 222.73 108.6C222.701 108.518 222.654 108.444 222.592 108.384C222.529 108.324 222.454 108.279 222.371 108.254C222.288 108.229 222.2 108.223 222.115 108.238C222.03 108.253 221.949 108.288 221.88 108.34C221.37 108.69 220.88 109.06 220.37 109.42C220.057 109.498 219.752 109.605 219.46 109.74C220.07 109.09 220.69 108.45 221.29 107.74C221.352 107.678 221.401 107.603 221.431 107.52C221.462 107.437 221.473 107.349 221.466 107.261C221.458 107.173 221.431 107.088 221.387 107.012C221.343 106.936 221.282 106.87 221.21 106.82C221.82 106.27 220.92 105.37 220.31 105.92L219.61 106.57C219.582 106.538 219.552 106.507 219.52 106.48L220 106C220.49 105.37 219.69 104.49 219.1 105.1L218.8 105.42C218.79 105.3 218.747 105.186 218.675 105.09C218.603 104.994 218.505 104.921 218.392 104.879C218.28 104.837 218.158 104.828 218.04 104.853C217.923 104.878 217.815 104.936 217.73 105.02C215.31 107.553 212.86 110.06 210.38 112.54C209.155 113.895 207.817 115.143 206.38 116.27C204.74 117.41 203.24 117.44 201.38 117.74C196.75 118.46 195.84 122.58 197.23 126.64C197.279 126.802 197.388 126.939 197.535 127.023C197.682 127.106 197.856 127.131 198.02 127.09L198.79 126.93C198.865 126.913 198.936 126.883 199 126.84C199.39 128.18 200.24 128.97 202.05 127.95C202.086 127.927 202.119 127.9 202.15 127.87C202.88 128.87 203.95 128.87 205.04 128.32C205.104 128.287 205.161 128.243 205.21 128.19C205.325 128.342 205.478 128.462 205.653 128.537C205.828 128.613 206.02 128.641 206.21 128.62C206.93 128.55 207.29 127.83 207.38 127.19C207.402 126.485 207.304 125.782 207.09 125.11C208.234 124.641 209.319 124.036 210.32 123.31C211.73 122.2 212.32 120.72 213.51 119.43C216.24 116.43 220.62 114.43 224 112.24C224.57 111.8 223.93 110.69 223.24 111.15Z" fill="#FFC197"/>
<path d="M234.38 66.24C234.38 66.24 231 83.16 229.3 87.24C227.6 91.32 214.58 105.85 214.58 105.85C214.58 105.85 221.27 115.66 222.32 114.85C229.537 107.744 236.01 99.9198 241.64 91.5C250.44 78.5 252.81 70.5 250.64 66.29C248.47 62.08 237 59.31 234.38 66.24Z" fill="#F7F7F7"/>
<path d="M223.05 55.28C223.05 55.28 224.58 59.78 224.94 60.28C224.94 60.28 230.17 60.64 232.23 52.45L231.78 46.06" fill="#EFAF84"/>
<path d="M234.84 35.64C234.84 35.64 236.63 38.07 235.84 40.51C235.05 42.95 234.17 43.33 234.17 43.33C234.17 43.33 235.17 48.2 230.84 49.22C226.51 50.24 224.31 41.53 226.1 40.22C227.89 38.91 234.84 35.64 234.84 35.64Z" fill="#6D3421"/>
<path d="M215.89 42C214.89 41.61 217.3 56.73 219.99 57.63C222.68 58.53 229.21 53.63 229.99 52.51C230.519 51.475 230.826 50.3406 230.89 49.18C230.89 49.18 233.58 45.47 231.4 44.95C231.113 44.8816 230.815 44.8748 230.525 44.93C230.235 44.9853 229.96 45.1012 229.718 45.2703C229.476 45.4394 229.273 45.6578 229.122 45.9111C228.97 46.1644 228.874 46.4469 228.84 46.74L227.94 47.89L227 42C227 42 219.47 43.45 215.89 42Z" fill="#FFC197"/>
<path d="M215.13 42V42.84C215.129 43.1131 215.232 43.3763 215.417 43.5767C215.603 43.7771 215.858 43.8998 216.13 43.92C219.13 44.23 228.75 44.58 236.13 37.77V34.77L222.13 38.44" fill="#D6AA50"/>
<path d="M211.4 34.23C211.4 34.23 209.22 40.76 215.88 42.04C217.691 42.4619 219.588 42.3125 221.311 41.6123C223.033 40.9122 224.497 39.6957 225.5 38.13C225.5 38.13 228.05 40.45 233.43 38.23C238.81 36.01 236.76 29.87 234.84 28.71C234.84 28.71 235.61 23.46 229.2 23.07C222.79 22.68 220 25.65 220 25.65C220 25.65 206.92 26.42 211.4 34.23Z" fill="#E5C687"/>
<path d="M323 138.44C324.78 138.334 326.558 138.678 328.17 139.44C329.816 140.374 331.099 141.836 331.81 143.59C332.6 145.26 332.96 147.64 334.61 148.72C335.257 149.064 335.817 149.549 336.25 150.14C336.659 150.713 336.919 151.378 337.008 152.076C337.097 152.774 337.012 153.483 336.76 154.14C336.03 155.61 332.97 156.51 331.57 156.24" fill="#8FDB5E"/>
<path d="M321.6 138.63C319.53 138.818 317.571 139.646 315.994 140.999C314.417 142.352 313.3 144.163 312.8 146.18C312.28 148.218 312.256 150.351 312.73 152.4C313.13 154.05 314.1 156.91 316.12 157.03C318.84 157.2 319.72 154.65 320.58 152.56C321.44 150.47 322.34 148.17 324.52 147.34C325.591 146.938 326.756 146.858 327.872 147.11C328.988 147.363 330.006 147.936 330.8 148.76L321.6 138.63Z" fill="#1E8C0E"/>
<path d="M334 149.68C332.36 147.55 331 145.23 329.4 143.06C328.505 141.643 327.433 140.346 326.21 139.2C322.42 137.36 317.66 139.05 314.87 142.27C315.26 142.39 315.79 142.41 316.08 142.52C317.757 143.166 319.245 144.222 320.41 145.59C322.08 147.44 323.41 149.71 324.87 151.68C327.28 154.88 330.47 157.51 334.59 155.6C337.27 154.37 335.21 151.19 334 149.68Z" fill="#8FDB5E"/>
<path d="M347.4 122.31C347.4 122.31 355.93 121.64 355.77 135.12C355.61 148.6 342.87 139.74 345.67 131.61" fill="#1E8C0E"/>
<path d="M346.17 135.58C346.08 131.48 350.69 128.48 354.58 127.95C354.157 126.228 353.166 124.7 351.767 123.611C350.368 122.522 348.643 121.937 346.87 121.95C341.03 122.1 336.66 128.03 335.67 135.02C334.68 142.01 340 146.42 340 146.42L342.82 148.82C348 146.79 346 139.32 346.17 135.58Z" fill="#8FDB5E"/>
<path d="M369.39 145.23C369.258 142.671 368.576 140.171 367.39 137.9C366.849 136.811 366.068 135.859 365.107 135.115C364.146 134.37 363.029 133.852 361.84 133.6L357.04 142.84C357.04 142.84 364.19 130.33 361.27 139.96C358.35 149.59 367.99 160.4 369.27 146.03C369.36 145.77 369.38 145.5 369.39 145.23Z" fill="#1E8C0E"/>
<path d="M335.47 169.3C335.47 169.3 329.05 173.47 330.84 183.24C331.47 186.624 332.424 189.939 333.69 193.14C334.93 196.31 335.85 200.42 339.05 202.21C342.05 203.88 346.65 204.21 349.66 202.35C352.41 200.67 353.39 196.85 354.4 194.01C355.603 190.515 356.427 186.901 356.86 183.23C359.88 159.63 335.47 169.3 335.47 169.3Z" fill="#A19F69"/>
<path d="M344.11 174.12C349.279 174.12 353.47 172.602 353.47 170.73C353.47 168.858 349.279 167.34 344.11 167.34C338.941 167.34 334.75 168.858 334.75 170.73C334.75 172.602 338.941 174.12 344.11 174.12Z" fill="#A19F69"/>
<path d="M344.87 152.69C343.56 149.53 341.12 146.88 340.35 143.5C339.865 141.21 340.06 138.829 340.911 136.649C341.762 134.469 343.232 132.585 345.14 131.23C345.85 130.71 345.14 129.51 344.44 130.03C338.44 134.38 337.3 141.8 340.79 148.12C341.87 150.12 343.28 151.96 343.94 154.12C344.8 156.94 343.84 158.97 342.52 161.12C342.594 159.031 341.847 156.996 340.44 155.45C338.89 154.01 336.59 153.77 334.66 153.12C330.93 151.86 327.66 149.73 327.02 145.58C326.89 144.7 325.55 145.08 325.69 145.95C326.21 149.35 328.44 151.78 331.45 153.32C333.252 154.081 335.107 154.71 337 155.2C337.822 155.516 338.57 155.996 339.2 156.612C339.829 157.228 340.326 157.965 340.66 158.78C341.54 160.78 340.94 162.21 340.45 164.19C339.8 166.75 338.78 168.96 340.54 171.38C341.06 172.09 342.26 171.38 341.74 170.68C338.93 166.81 343.42 163.13 344.93 159.81C345.431 158.688 345.686 157.472 345.675 156.243C345.665 155.015 345.39 153.803 344.87 152.69Z" fill="#1E8C0E"/>
<path d="M362.13 144.21C356.22 143.21 352.19 147.75 352.54 153.47C352.662 154.906 352.926 156.326 353.33 157.71C353.6 158.71 354.33 160.4 354.11 161.39C353.916 162.282 353.506 163.113 352.917 163.81C352.328 164.508 351.577 165.05 350.73 165.39C348.16 166.6 346.51 168.06 345.73 170.87C345.681 171.046 345.704 171.235 345.794 171.394C345.884 171.554 346.033 171.671 346.21 171.72C346.386 171.769 346.575 171.746 346.734 171.656C346.894 171.566 347.011 171.416 347.06 171.24C348.43 166.24 355.43 166.95 355.48 161.44C355.48 158.75 354.07 156.22 353.91 153.52C353.62 148.81 356.7 144.7 361.75 145.59C362.63 145.7 363 144.37 362.13 144.21Z" fill="#1E8C0E"/>
<path d="M367.42 137.9C365.13 133.67 360.96 132.68 356.88 133.9C356.316 134.129 355.768 134.397 355.24 134.7C344.97 142.31 352.24 159.49 353.84 159.36C359.07 158.93 358.53 155.85 360.28 147.24C360.58 145.296 361.574 143.527 363.078 142.261C364.582 140.994 366.494 140.315 368.46 140.35C368.186 139.505 367.838 138.685 367.42 137.9Z" fill="#8FDB5E"/>
<path d="M365.17 135.1C363.458 134.832 361.705 135.09 360.142 135.84C358.58 136.59 357.282 137.796 356.42 139.3C352.67 145.58 353.53 152.9 354.03 159.82C354.09 160.7 355.48 160.71 355.41 159.82C355.05 154.82 354.34 149.82 355.7 144.94C356.37 142.53 357.17 139.84 359.1 138.12C360.139 137.2 361.425 136.604 362.799 136.407C364.172 136.209 365.574 136.419 366.83 137.01L366.31 136.3C365.92 135.91 365.54 135.51 365.17 135.1Z" fill="#1E8C0E"/>
<path d="M128.54 67.64C126.93 66.77 124.66 66.28 123.66 64.64C122.22 62.2 125.45 60.64 127.24 59.93C128.61 59.39 128.01 57.14 126.62 57.69C124.62 58.47 122.62 59.4 121.55 61.37C121.104 62.2287 120.941 63.2059 121.083 64.1628C121.225 65.1197 121.664 66.0075 122.34 66.7C123.96 68.49 126.34 68.83 128.24 70.2C129.18 70.89 130.12 72.05 129.54 73.25C128.96 74.45 127.54 74.82 126.37 75.11C122.52 76.06 117.51 77.61 117.53 82.51C117.562 83.4637 117.847 84.3918 118.354 85.1999C118.862 86.0079 119.575 86.667 120.42 87.11C122.57 88.32 125.08 88.2 127.42 88C128.9 87.87 128.91 85.55 127.42 85.68C125.29 85.86 122.79 86.15 121 84.73C119.21 83.31 119.64 81.24 121 79.81C123.7 77 128.42 78.2 131 75.2C133.37 72.38 131.23 69.09 128.54 67.64Z" fill="#E5C687"/>
<path d="M144.59 71.07C143.51 70.49 141.99 70.16 141.32 69.07C140.32 67.44 142.52 66.39 143.71 65.91C144.63 65.55 144.23 64.04 143.3 64.41C141.906 64.7965 140.698 65.6737 139.9 66.88C139.602 67.4552 139.492 68.1098 139.587 68.7508C139.682 69.3917 139.977 69.9863 140.43 70.45C141.51 71.65 143.12 71.88 144.43 72.79C145.06 73.25 145.69 74.03 145.3 74.79C145.049 75.1379 144.724 75.4264 144.349 75.6355C143.974 75.8445 143.558 75.9689 143.13 76C140.55 76.64 137.2 77.67 137.21 81C137.233 81.639 137.424 82.2606 137.765 82.8016C138.105 83.3426 138.583 83.7837 139.15 84.08C140.624 84.7486 142.266 84.9544 143.86 84.67C144.86 84.59 144.86 83.03 143.86 83.12C142.43 83.24 140.76 83.43 139.56 82.48C139.32 82.2782 139.127 82.0264 138.995 81.7422C138.863 81.4581 138.794 81.1484 138.794 80.835C138.794 80.5216 138.863 80.2119 138.995 79.9278C139.127 79.6436 139.32 79.3918 139.56 79.19C141.37 77.31 144.56 78.11 146.24 76.1C147.82 74.25 146.39 72 144.59 71.07Z" fill="#E5C687"/>
<path d="M184.34 116.07C184.075 116.07 183.82 116.175 183.633 116.363C183.445 116.55 183.34 116.805 183.34 117.07C183.34 117.335 183.445 117.59 183.633 117.777C183.82 117.965 184.075 118.07 184.34 118.07C184.605 118.07 184.859 117.965 185.047 117.777C185.234 117.59 185.34 117.335 185.34 117.07C185.34 116.805 185.234 116.55 185.047 116.363C184.859 116.175 184.605 116.07 184.34 116.07Z" fill="#E5C687"/>
<path d="M171.59 121.61C171.325 121.61 171.07 121.715 170.883 121.903C170.695 122.09 170.59 122.345 170.59 122.61C170.59 122.875 170.695 123.13 170.883 123.317C171.07 123.505 171.325 123.61 171.59 123.61C171.855 123.61 172.109 123.505 172.297 123.317C172.484 123.13 172.59 122.875 172.59 122.61C172.59 122.345 172.484 122.09 172.297 121.903C172.109 121.715 171.855 121.61 171.59 121.61Z" fill="#E5C687"/>
<path d="M192.1 134.92C191.835 134.92 191.581 135.025 191.393 135.213C191.205 135.4 191.1 135.655 191.1 135.92C191.1 136.185 191.205 136.44 191.393 136.627C191.581 136.815 191.835 136.92 192.1 136.92C192.365 136.92 192.62 136.815 192.807 136.627C192.995 136.44 193.1 136.185 193.1 135.92C193.1 135.655 192.995 135.4 192.807 135.213C192.62 135.025 192.365 134.92 192.1 134.92Z" fill="#E5C687"/>
<path d="M184.62 125.49C184.355 125.49 184.101 125.595 183.913 125.783C183.725 125.97 183.62 126.225 183.62 126.49C183.62 126.755 183.725 127.01 183.913 127.197C184.101 127.385 184.355 127.49 184.62 127.49C184.885 127.49 185.14 127.385 185.327 127.197C185.515 127.01 185.62 126.755 185.62 126.49C185.62 126.225 185.515 125.97 185.327 125.783C185.14 125.595 184.885 125.49 184.62 125.49Z" fill="#E5C687"/>
<path d="M173.8 135.47C173.535 135.47 173.28 135.575 173.093 135.763C172.905 135.95 172.8 136.205 172.8 136.47C172.8 136.735 172.905 136.99 173.093 137.177C173.28 137.365 173.535 137.47 173.8 137.47C174.065 137.47 174.319 137.365 174.507 137.177C174.694 136.99 174.8 136.735 174.8 136.47C174.8 136.205 174.694 135.95 174.507 135.763C174.319 135.575 174.065 135.47 173.8 135.47Z" fill="#E5C687"/>
<path d="M166.87 130.76C166.605 130.76 166.351 130.865 166.163 131.053C165.975 131.24 165.87 131.495 165.87 131.76C165.87 132.025 165.975 132.28 166.163 132.467C166.351 132.655 166.605 132.76 166.87 132.76C167.135 132.76 167.39 132.655 167.577 132.467C167.765 132.28 167.87 132.025 167.87 131.76C167.87 131.495 167.765 131.24 167.577 131.053C167.39 130.865 167.135 130.76 166.87 130.76Z" fill="#E5C687"/>
<path d="M184.89 141.57C184.625 141.57 184.371 141.675 184.183 141.863C183.995 142.05 183.89 142.305 183.89 142.57C183.89 142.835 183.995 143.09 184.183 143.277C184.371 143.465 184.625 143.57 184.89 143.57C185.155 143.57 185.41 143.465 185.597 143.277C185.785 143.09 185.89 142.835 185.89 142.57C185.89 142.305 185.785 142.05 185.597 141.863C185.41 141.675 185.155 141.57 184.89 141.57Z" fill="#E5C687"/>
<path d="M196.81 130.48C196.545 130.48 196.29 130.585 196.103 130.773C195.915 130.96 195.81 131.215 195.81 131.48C195.81 131.745 195.915 132 196.103 132.187C196.29 132.375 196.545 132.48 196.81 132.48C197.075 132.48 197.33 132.375 197.517 132.187C197.705 132 197.81 131.745 197.81 131.48C197.81 131.215 197.705 130.96 197.517 130.773C197.33 130.585 197.075 130.48 196.81 130.48Z" fill="#E5C687"/>
<path d="M184.34 132.15C184.075 132.15 183.82 132.255 183.633 132.443C183.445 132.63 183.34 132.885 183.34 133.15C183.34 133.415 183.445 133.67 183.633 133.857C183.82 134.045 184.075 134.15 184.34 134.15C184.605 134.15 184.859 134.045 185.047 133.857C185.234 133.67 185.34 133.415 185.34 133.15C185.34 132.885 185.234 132.63 185.047 132.443C184.859 132.255 184.605 132.15 184.34 132.15Z" fill="#E5C687"/>
<path d="M193.76 119.67C193.495 119.67 193.24 119.775 193.053 119.963C192.865 120.15 192.76 120.405 192.76 120.67C192.76 120.935 192.865 121.19 193.053 121.377C193.24 121.565 193.495 121.67 193.76 121.67C194.025 121.67 194.279 121.565 194.467 121.377C194.654 121.19 194.76 120.935 194.76 120.67C194.76 120.405 194.654 120.15 194.467 119.963C194.279 119.775 194.025 119.67 193.76 119.67Z" fill="#E5C687"/>
<defs>
<linearGradient id="paint0_linear_67_16" x1="323.87" y1="213.58" x2="336.46" y2="194.58" gradientUnits="userSpaceOnUse">
<stop stop-color="#E5C687" stop-opacity="0"/>
<stop offset="1" stop-color="#887D67"/>
</linearGradient>
<linearGradient id="paint1_linear_67_16" x1="164.13" y1="243.1" x2="191.87" y2="201.23" gradientUnits="userSpaceOnUse">
<stop offset="0.02" stop-color="#E5C687" stop-opacity="0"/>
<stop offset="1" stop-color="#C4A568"/>
</linearGradient>
</defs>
</svg>
