<svg width="450" height="420" viewBox="0 0 450 420" fill="none" xmlns="http://www.w3.org/2000/svg">
<path d="M248.794 42.7959C247.621 42.7959 246.448 42.7959 245.422 43.0892C243.955 43.0892 242.342 43.3825 240.875 43.3825C237.942 43.3825 235.156 43.3825 232.076 43.6758L224.304 44.5557H222.251C221.664 44.5557 221.077 44.5557 220.491 44.849L216.531 45.4356H217.118C215.065 45.7289 212.865 46.0222 210.812 46.6088L208.172 47.1954L204.799 47.9286C203.919 48.2219 202.746 48.222 201.866 48.5153C200.693 48.8086 199.52 49.1019 198.786 49.3952C197.613 49.6885 196.147 49.9818 195.12 50.2751L192.774 50.8617C190.721 51.4483 189.107 51.7416 187.054 52.3282C185.001 52.9148 182.802 53.2081 180.748 53.7947C178.109 54.6746 175.322 55.5545 172.683 56.4344C171.216 57.021 169.75 57.3143 168.43 57.9009L167.55 58.1942C163.297 59.6607 158.751 61.1272 154.351 62.7404C152.005 63.6203 150.098 64.7935 147.752 65.8201C145.992 66.7 144.672 67.5799 143.206 68.4598L141.739 69.3397C140.859 69.9263 140.273 70.5129 139.979 71.3928C136.606 73.4459 133.673 74.7658 131.327 76.5256C128.687 78.5787 125.901 80.4852 123.261 82.5383L120.328 84.8847C117.688 86.9378 115.195 89.1376 112.556 91.1907C111.676 92.0706 110.796 92.6572 109.916 93.5371L107.863 95.2969C106.983 95.8835 106.103 96.7634 105.223 97.6433C103.757 99.1098 102.143 100.576 100.384 102.19C99.797 102.776 99.5037 103.363 98.9171 103.949L98.6238 104.243C97.7439 105.416 96.864 106.589 95.9841 107.322C94.8109 109.082 93.3444 110.402 92.3178 112.455C89.9714 115.535 88.065 119.348 86.0118 123.307C83.6654 127.56 82.0523 131.96 80.8791 135.919C80.2925 137.679 79.9992 139.586 79.4125 141.345L79.1193 142.812C78.5326 145.892 77.946 148.825 77.6527 151.904V151.611C77.3594 153.664 77.0661 155.57 77.0661 157.624C77.0661 159.677 76.7728 161.583 76.4795 163.636C76.1862 165.689 76.1862 167.889 76.1862 169.942C76.1862 171.115 76.1862 172.289 75.8929 173.022C75.8929 173.902 75.8929 175.075 75.5996 175.955C75.3063 179.915 75.3063 184.314 75.5996 188.567C75.5996 193.113 75.8929 197.219 76.4795 200.886L77.0661 204.552L77.946 212.324V212.031C78.2393 213.791 78.5327 215.404 78.826 217.457C79.1193 219.217 79.4125 220.537 79.9991 222.297L80.2925 222.883C80.5858 223.763 80.8791 224.936 80.8791 225.816C81.4657 228.456 82.0523 231.242 83.2255 234.175C83.8121 235.642 84.3987 237.255 84.9853 238.722C85.5719 240.188 86.1585 241.801 86.7451 243.268L87.3317 244.734C87.3317 245.028 87.625 245.321 87.625 245.614C88.2116 246.494 88.5049 247.374 89.0915 248.254L90.2647 249.427L91.7312 250.894C92.0245 250.894 92.0245 251.187 92.3178 251.187C92.9044 251.48 93.491 251.48 94.0777 251.48C95.5442 251.48 97.0107 251.774 98.6238 251.774C100.384 251.774 101.703 251.774 103.463 251.48C107.423 250.894 111.529 249.72 115.195 248.547C118.862 247.374 122.381 245.908 126.048 244.294C128.394 243.121 130.887 242.241 133.233 241.215C135.873 240.041 138.366 238.868 141.006 237.842C142.766 236.962 144.379 236.375 146.139 235.495L153.911 232.122H154.205C159.631 229.776 164.763 227.576 170.483 225.523C175.616 223.763 180.455 222.15 185.588 220.39C189.547 218.924 193.654 217.457 197.613 216.137C201.573 214.964 205.679 213.498 209.639 212.764C213.598 211.591 217.704 210.711 221.664 209.685C225.624 208.512 229.73 207.338 233.983 206.312C237.356 205.432 240.582 204.552 243.955 203.965C247.035 202.792 250.554 201.326 253.634 200.299L254.807 200.006C256.86 199.126 258.767 198.246 260.82 197.659C262.58 197.073 264.193 196.486 265.659 195.606C267.126 195.02 268.739 194.433 270.206 193.846C272.845 192.967 275.338 191.793 277.978 190.767C279.445 190.18 281.058 189.3 282.524 188.42L282.818 188.127C283.991 187.54 285.164 186.954 286.484 186.367C289.563 185.194 292.79 184.314 295.869 183.434L297.336 183.141L299.389 182.554C302.469 181.674 305.988 180.794 309.068 179.621C312.148 178.448 315.374 177.275 318.16 176.248L320.507 175.368C325.346 173.609 329.159 171.995 332.532 170.529C333.119 170.236 333.999 169.942 334.879 169.649C335.759 169.356 336.638 169.062 337.225 168.769C339.278 167.889 341.478 167.009 343.531 166.129C346.171 164.956 348.664 164.076 351.304 163.05H351.597C353.65 162.17 355.556 161.29 357.903 160.41L360.249 159.237C361.422 158.65 362.302 158.064 362.889 157.184C363.476 156.304 363.769 154.837 363.476 153.811C363.182 152.344 362.009 151.171 360.543 150.878C360.249 149.998 359.956 149.118 359.369 148.238L359.076 147.358C358.196 145.012 357.316 143.105 356.436 140.759L355.556 138.119C354.09 134.453 352.477 130.933 350.717 127.56L348.664 123.601C345.584 117.001 342.358 110.402 338.398 104.096C336.052 100.43 333.852 96.9101 330.919 92.9505L330.332 92.0706C327.693 88.6976 325.2 85.178 322.267 81.805C318.894 77.5522 315.667 74.3258 312.881 71.5395L312.588 71.2461C309.655 68.3131 306.868 65.5268 303.789 62.887C300.709 59.954 297.189 57.461 293.523 54.5279C291.763 53.3547 290.15 52.1815 288.39 51.4483C286.337 50.2751 284.137 49.3952 281.791 48.5153C278.418 47.342 274.605 45.8755 270.645 45.1423C266.099 43.9691 261.993 43.0892 258.327 42.7959C255.687 42.5026 253.194 42.5026 251.141 42.5026C249.968 42.7959 249.381 42.7959 248.794 42.7959ZM217.704 74.6191C215.651 72.8593 214.625 70.3663 214.331 67.7265C214.038 65.9667 214.625 64.3536 214.918 62.5937C215.505 60.5406 217.264 59.5141 219.171 59.5141C219.464 59.5141 220.051 59.5141 220.344 59.8074C220.637 59.8074 221.224 60.1007 221.517 60.394C222.104 60.1007 222.984 60.1007 223.57 60.1007C224.744 60.1007 225.917 60.1007 226.65 60.394C228.41 60.9806 229.73 62.1538 230.61 63.4737C231.49 64.9402 232.37 66.4067 232.37 68.0198C232.37 69.4863 232.076 70.9529 231.49 72.2727C230.903 73.4459 230.316 74.6191 229.143 75.3524C228.557 75.939 227.97 76.2323 227.09 76.5256C226.21 76.8189 225.33 77.1122 224.45 77.1122C221.957 77.1122 219.318 76.2323 217.704 74.6191ZM281.204 126.387C279.738 125.8 278.565 125.214 277.538 124.041C275.778 122.281 274.898 120.374 274.165 118.028C273.578 116.561 272.992 115.095 272.405 113.482C271.525 111.429 270.352 109.522 269.326 107.762C268.152 106.296 266.686 104.683 265.366 103.216C263.9 101.75 262.286 100.283 260.82 99.2565C259.647 98.3766 258.18 97.2034 256.86 96.3235C255.394 95.1503 253.927 94.5637 252.314 93.6838C251.434 93.3905 250.554 93.0972 249.674 92.5105C248.794 92.2172 247.621 91.6306 247.035 91.044C246.155 90.4574 245.275 89.8708 244.395 88.9909C242.928 87.2311 241.755 85.3246 242.049 82.9782C242.342 81.2184 242.635 79.8986 243.222 78.1388C244.102 76.0857 245.568 74.4725 247.475 73.2993C248.355 72.7127 249.234 72.1261 250.114 72.1261C250.994 71.8328 251.874 71.8328 252.754 71.8328C253.927 71.8328 254.807 71.5395 255.834 71.5395H256.127C256.714 71.5395 257.3 71.8328 257.887 72.1261C259.94 72.1261 262.14 72.4194 264.193 72.7127H265.073C266.246 73.006 267.419 73.006 268.152 73.5926C269.619 74.1792 270.792 74.7658 272.112 75.6457C274.165 77.1122 276.072 77.9921 277.538 79.6053C280.911 82.9782 283.844 87.0845 286.19 91.3374C287.364 93.3905 288.244 95.2969 288.83 97.6433C289.417 99.6964 290.003 101.603 290.59 103.949C290.883 106.296 291.47 108.202 291.47 110.549C291.47 112.602 291.47 114.508 291.177 116.561C290.883 118.028 290.883 119.201 290.59 120.521C290.297 121.401 290.003 121.987 289.71 122.867C289.417 123.161 289.417 123.454 289.124 123.747C288.83 124.041 288.244 124.92 287.95 125.214C287.07 125.8 286.484 126.387 285.604 126.68C285.017 126.974 284.431 126.974 283.844 126.974H283.257C282.524 126.68 282.084 126.68 281.204 126.387ZM278.271 152.931C277.685 151.758 277.098 150.291 276.805 149.265C276.512 147.798 276.218 146.625 276.218 145.305C276.218 144.132 276.218 142.665 276.512 141.639C276.805 140.172 277.391 138.706 278.271 137.386C278.858 136.506 280.031 135.626 280.911 135.333C281.204 135.333 281.791 135.039 282.084 135.039C282.964 135.039 283.551 135.333 284.431 135.626L285.311 136.506C285.897 136.799 286.777 137.386 287.07 138.266C287.657 139.146 287.657 140.319 287.657 141.199C287.95 141.492 288.244 141.785 288.244 142.372C289.123 143.545 290.003 145.012 290.003 146.331C290.297 147.798 290.297 149.265 289.71 150.584C289.417 151.758 288.83 152.931 287.95 153.957C287.07 155.131 285.897 156.01 284.577 156.597C284.284 156.597 283.697 156.89 283.404 156.89C280.911 156.157 279.151 154.691 278.271 152.931ZM154.351 231.389C154.351 231.389 154.058 231.389 154.058 231.682C154.205 231.389 154.205 231.389 154.351 231.389ZM304.962 266.292C302.322 266.292 299.829 266.292 296.896 266.585H295.429C291.47 266.879 287.364 266.879 283.697 267.172L278.858 267.465C275.925 267.759 273.139 268.052 270.206 268.052C265.659 268.345 261.406 268.638 256.714 268.932C254.661 268.932 252.754 269.225 250.701 269.225C248.355 269.225 245.861 269.518 243.515 269.812L238.969 270.105C235.889 270.398 232.663 270.692 229.583 270.692C226.943 270.692 224.45 270.985 221.811 270.985H214.625C211.692 270.985 208.612 270.692 205.826 270.692H202.453C200.4 270.692 198.2 270.692 196.147 270.985C193.507 270.985 191.307 270.985 188.668 271.278H185.295C182.215 271.278 178.695 271.571 175.616 271.571H157.871C156.404 271.571 155.231 271.571 153.911 271.278H151.272C147.312 271.278 142.912 270.985 138.66 270.692C136.9 270.692 135.287 270.398 133.527 270.398C130.887 270.105 128.101 270.105 125.461 269.812H105.663C103.903 269.812 102.583 269.812 100.824 269.518H95.3975C93.3444 269.518 91.4379 269.518 89.0915 269.225C88.2116 267.759 86.7451 267.172 85.4252 267.172C84.1054 267.172 82.7855 267.172 81.4657 267.465H80.5858C80.2925 267.465 79.9991 267.465 79.7058 267.172H78.6793C77.7994 267.172 77.2128 267.465 76.6262 267.759C75.453 267.759 73.6932 268.052 72.08 268.345C69.7336 268.638 67.8271 269.518 65.774 270.692C64.0142 271.571 62.401 272.745 60.9345 273.771C59.468 274.798 58.2948 276.411 57.8549 278.024L56.9749 279.784C56.6816 280.957 56.6816 282.424 56.6816 283.157C56.9749 285.503 59.0281 287.116 60.0546 287.703C60.3479 287.996 60.6412 287.996 60.9345 288.29C61.2278 288.583 61.5211 288.583 61.8144 288.876C62.1077 289.17 62.6943 289.463 62.9876 289.756L63.5742 290.049C65.0407 290.929 66.5073 291.809 68.4137 292.396L69.0003 292.689C70.7601 293.276 72.08 293.862 73.8398 294.156C74.7197 294.449 75.8929 294.449 76.7728 294.742C77.946 295.036 78.8259 295.329 79.8525 295.329C82.9322 296.209 86.4518 296.209 89.8248 296.502C90.998 296.502 92.1712 296.502 92.9044 296.795C93.7843 296.795 94.6643 296.795 95.5442 297.089C96.7174 297.089 97.8906 297.382 98.6238 297.382C100.677 297.382 102.877 297.675 104.93 297.675C108.303 297.969 111.822 297.969 114.902 297.969H158.164C160.804 297.969 163.004 297.969 165.643 297.675C167.403 297.675 169.31 297.675 171.069 297.382H202.599C205.239 297.382 207.439 297.382 210.079 297.675C212.718 297.675 215.505 297.969 218.144 298.262C219.904 298.555 221.517 298.555 223.277 298.555C228.41 298.849 232.37 299.142 236.476 299.142H263.02C268.446 299.142 273.285 299.142 277.538 299.435C279.005 299.435 280.618 299.435 282.084 299.728C285.017 299.728 288.097 300.022 290.883 300.022H304.669C309.215 299.728 313.468 299.728 318.16 299.435C320.8 299.435 323 299.142 325.64 298.849C327.399 298.555 329.013 298.555 330.479 298.262C332.239 298.262 333.852 297.969 335.612 297.969H336.785C338.252 297.969 339.718 297.969 341.038 297.675H342.798C346.171 297.382 349.69 297.382 352.77 297.382H361.422C363.476 297.382 365.382 297.382 367.435 297.089C369.488 297.089 371.395 296.502 373.448 296.209C375.208 295.915 376.527 295.622 378.287 295.036L379.461 294.449C380.927 293.862 382.394 293.276 383.42 292.689C384.593 292.103 385.473 291.223 386.5 290.636L387.38 290.049C387.966 289.756 388.26 289.463 388.846 289.17C390.019 288.583 390.899 287.703 391.779 286.823C392.366 286.237 393.246 285.357 393.832 284.183C394.712 282.717 395.006 281.837 395.299 280.81V280.517C395.299 279.931 395.592 279.344 395.299 278.757C395.299 277.584 395.006 276.704 394.419 275.678C394.126 274.798 392.952 273.918 392.073 273.331C391.779 273.038 391.193 272.745 390.899 272.745L386.646 270.985L385.473 270.692C383.713 270.105 382.1 269.518 380.047 268.932C377.994 268.345 375.794 268.052 374.034 267.465C369.488 266.585 364.942 265.999 359.956 265.705C357.609 265.705 355.41 265.412 352.77 265.412C350.717 265.412 348.81 265.119 346.757 265.119C345.877 265.119 344.998 265.119 343.824 264.825C342.651 264.825 341.478 264.532 340.451 264.532H305.548C305.548 264.826 304.962 266.292 304.962 266.292Z" fill="#503FCD"/>
<path d="M78.0931 266.879C76.6266 266.879 75.16 267.172 74.1335 267.465C72.667 267.758 71.4938 268.638 70.4672 269.518C68.4141 270.985 67.5342 273.185 69.0007 275.531C70.1739 277.584 72.9603 278.464 75.0134 276.998C75.6 276.411 76.1866 276.118 77.0665 275.824C77.3598 275.824 77.9464 275.531 78.2397 275.531C80.2928 275.238 81.906 275.238 83.9591 275.238C86.0122 275.238 87.9187 275.531 89.9718 275.531C92.3182 275.824 94.2247 275.531 96.2778 275.531H102.584C110.943 275.824 119.155 275.824 127.221 275.824H146.139C148.486 275.824 150.685 276.118 152.738 276.411C156.698 276.704 161.098 276.997 165.057 277.291C169.017 277.584 173.123 278.171 177.083 278.171C181.042 278.171 185.442 278.464 189.401 278.757C193.654 279.051 197.76 279.051 202.013 279.051H247.182C249.235 279.051 251.141 279.344 253.194 279.637C257.154 279.931 261.26 280.517 264.926 280.81C268.593 281.104 272.699 281.397 276.365 281.69C280.325 282.277 284.431 283.157 288.391 283.45C292.937 284.037 297.483 284.33 302.176 284.623C304.522 284.623 306.429 282.57 306.429 280.37C306.429 278.171 304.376 276.118 302.176 276.118C299.536 276.118 297.336 275.824 294.697 275.824C292.643 275.531 290.737 275.531 288.684 275.238C286.631 274.944 284.431 274.651 282.378 274.358C280.031 274.064 277.832 273.478 275.485 273.478C271.232 273.185 266.686 272.891 262.287 272.305C258.034 271.718 253.634 271.425 249.381 271.131C245.129 270.838 240.729 270.838 236.476 270.838H196.147C192.188 270.838 187.788 270.545 183.828 270.252H177.522C175.469 270.252 173.27 269.958 171.216 269.958L159.191 269.078C154.938 268.785 150.539 268.198 146.286 267.905C144.233 267.612 142.326 267.905 139.98 267.905H108.45C104.49 267.905 100.091 267.612 96.1311 267.612C93.7847 267.612 91.8783 267.905 89.5318 267.612C87.4787 267.612 85.5723 267.319 83.8125 267.319H82.0526C80.5861 266.585 79.4129 266.585 78.0931 266.879Z" fill="#503FCD"/>
<path d="M282.523 109.229C281.937 110.109 281.057 110.696 280.177 110.989C280.47 111.576 280.47 112.162 280.764 112.749C281.35 113.922 281.644 115.388 282.23 116.415C282.23 116.708 282.523 116.708 282.523 117.002C282.523 116.708 282.523 116.415 282.817 116.122C283.11 113.775 283.11 111.282 282.817 108.936L282.523 109.229ZM51.4015 257.347C49.935 257.64 48.7618 257.933 47.4419 258.52C45.3888 259.4 43.7757 260.28 42.0158 261.6C40.8426 262.773 39.6694 263.946 38.6429 265.266C38.0563 266.146 37.763 266.732 37.4697 267.612C37.1764 268.492 37.1764 269.665 36.8831 270.545C36.5898 271.718 36.5898 273.185 36.8831 274.211C37.1764 275.678 37.1764 277.145 37.763 278.171C38.0563 279.051 38.3496 279.931 38.6429 280.517C38.9362 281.397 39.5228 281.984 40.1094 282.864C40.696 283.744 41.8692 284.33 42.7491 284.917C43.3357 285.504 44.2156 285.797 45.0955 286.09C47.4419 287.263 49.935 287.85 52.5747 288.73C54.9211 289.61 57.1209 289.61 59.4673 290.196C60.9338 290.49 62.4003 290.783 63.7202 290.783C65.1867 291.076 66.3599 291.076 67.6798 291.076C69.7329 291.37 71.346 291.663 73.3992 291.956C75.159 292.25 77.0654 292.25 78.8253 292.543C82.7848 293.129 87.1844 292.836 91.1439 293.129C95.3968 293.423 99.5031 294.009 103.756 294.303C105.809 294.303 108.009 294.596 110.062 294.596H129.273C133.233 294.596 137.339 294.303 141.592 294.303C143.645 294.303 145.551 294.009 147.898 294.009H186.174C188.227 294.009 190.133 294.303 192.186 294.303C196.439 294.596 200.839 294.303 205.385 294.596C209.345 294.889 213.451 294.889 217.41 294.889C221.663 294.889 225.77 295.476 230.022 295.476H248.94C250.994 295.476 253.193 295.769 255.246 295.769C259.206 296.062 263.312 295.769 267.565 295.769H279.884L292.789 296.649C297.042 297.236 301.441 297.236 305.694 297.236C309.654 297.529 314.053 297.822 318.013 297.822H338.104C340.157 297.822 342.064 297.529 344.117 297.529C348.076 297.529 352.183 297.236 356.142 297.236C359.809 297.236 363.328 296.942 366.994 296.649C369.927 296.356 372.714 295.769 375.647 295.183C377.993 294.596 380.193 293.423 382.539 292.25C384.299 291.37 385.912 289.903 387.379 288.583C388.259 287.703 388.845 287.117 389.432 286.237C390.019 285.357 390.312 284.477 390.899 283.597C390.605 283.89 390.605 284.184 390.312 284.77C390.899 283.304 391.485 281.837 391.778 280.517C392.072 279.198 392.072 277.584 392.072 276.265C392.072 274.505 391.485 273.185 390.899 271.718C390.312 270.545 389.432 269.665 388.845 268.785C388.552 268.199 387.966 267.612 387.379 267.319C386.792 266.732 385.912 266.146 385.033 265.559C384.153 264.679 383.273 264.386 381.953 264.386C380.78 264.386 379.606 264.972 378.873 265.559C377.993 266.439 377.7 267.612 377.7 268.639C377.7 269.812 377.993 270.985 378.873 271.718C379.46 272.305 380.34 272.892 380.926 273.478C381.22 273.772 381.806 274.358 382.1 274.945C382.393 275.238 382.686 275.531 382.686 275.825C382.686 276.118 382.686 276.118 382.979 276.411V278.758C382.686 279.638 382.686 280.517 382.393 281.104C382.1 281.397 382.1 281.691 381.806 282.277L379.753 284.33C378.287 285.21 377.113 286.09 375.5 286.97C372.861 288.143 370.074 288.437 367.141 288.73C364.061 289.023 360.542 289.317 357.462 289.61H351.449C349.396 289.61 347.49 289.903 345.437 289.903C341.477 289.903 337.371 290.196 333.411 290.196H312.88C310.827 290.196 308.921 289.903 306.868 289.903C304.814 289.903 302.615 289.61 300.562 289.61C298.508 289.61 296.309 289.61 294.256 289.317C290.003 289.023 285.603 288.437 281.057 288.437C279.004 288.437 277.097 288.143 275.044 288.143H256.42C254.367 288.143 252.46 287.85 250.407 287.85H231.489C227.236 287.85 223.13 287.557 218.877 287.263C214.917 286.97 210.811 287.263 206.852 286.97C202.599 286.677 198.199 286.97 193.946 286.677C191.6 286.677 189.693 286.384 187.64 286.384H168.136C159.483 286.384 151.271 286.09 142.618 286.677C140.565 286.677 138.366 286.677 136.312 286.97C134.259 286.97 132.353 287.263 130.3 287.263H117.981C114.021 287.263 109.915 287.263 105.662 286.97C101.996 286.677 97.8899 286.383 94.2236 286.09C90.5573 285.797 86.7444 285.504 82.7848 285.504C79.1186 285.504 75.5989 284.917 71.9326 284.33C70.7594 284.037 69.2929 284.037 68.2664 283.744C66.7999 283.45 65.1867 283.45 63.7202 283.157C62.547 282.864 61.3738 282.864 60.3472 282.571L56.0944 281.691C54.6278 281.397 53.1613 280.811 52.1348 280.517C50.9615 280.224 49.495 279.638 48.4685 279.344C47.8819 279.051 47.2953 278.758 46.7087 278.171L46.4154 277.878C46.1221 277.584 46.1221 277.291 45.8288 276.998C45.5355 276.411 45.2422 275.531 45.2422 274.651V271.572C45.2422 271.278 45.2422 270.985 45.5355 270.692C45.8288 270.399 45.8288 270.105 46.1221 269.519L47.8819 267.759C48.4685 267.172 49.3484 266.879 49.935 266.586C50.8149 266.292 51.6948 265.999 52.868 265.706H54.3345C54.6278 265.706 55.2144 265.706 55.5077 265.999C56.6809 266.292 57.8542 266.292 58.8807 265.412C59.7606 264.826 60.6405 263.946 60.9338 262.773C61.2271 261.599 61.2271 260.426 60.3472 259.4C59.7606 258.52 58.8807 257.64 57.7075 257.347C56.5343 257.053 55.3611 257.053 54.3345 256.76H53.4546C52.868 257.347 51.9881 257.347 51.4015 257.347ZM382.979 280.811C382.979 281.104 382.686 281.104 382.686 281.397C382.686 281.104 382.686 280.811 382.979 280.811ZM66.9465 291.37H67.5331C67.0932 291.663 66.9465 291.37 66.9465 291.37Z" fill="#1C1B20"/>
<path d="M60.0543 257.053C58.0012 257.053 56.388 257.346 54.3349 257.346C51.9885 257.346 50.082 259.4 50.082 261.599C50.082 263.799 52.1351 265.852 54.3349 265.852C56.388 265.852 58.0012 265.559 59.761 265.559H65.7737C69.7333 265.559 73.5462 265.559 77.5058 265.852C81.4653 266.146 85.5716 266.146 89.5311 266.439C93.784 266.732 98.1836 267.025 102.143 267.319C104.196 267.319 106.396 267.612 108.449 267.612H121.354C123.701 267.612 125.607 267.905 127.954 267.905C131.913 267.905 136.313 267.612 140.272 267.612H153.178C157.431 267.319 161.977 267.319 166.376 267.319H179.868C184.121 267.319 188.521 267.612 192.48 267.612C197.026 267.612 201.279 267.612 205.972 267.905C214.771 268.199 223.717 268.199 232.516 268.199H251.727C254.074 268.199 256.273 267.905 258.326 267.905H265.219C267.272 267.905 269.472 268.199 271.525 268.199H297.189C301.442 268.199 305.841 267.905 310.094 267.905H334.145C337.811 267.905 341.331 268.199 344.997 268.199C347.05 268.199 348.957 268.199 351.303 268.492C353.356 268.785 354.969 268.785 357.023 268.785C358.782 268.785 360.689 268.785 362.449 269.079H361.862C362.742 269.079 363.622 269.372 364.502 269.372C365.382 269.372 366.262 269.665 366.848 269.665C368.315 269.959 369.928 270.252 371.394 270.252C372.568 270.545 374.034 270.545 375.061 270.838C374.767 270.838 374.181 270.838 373.887 270.545C376.527 270.838 378.727 271.425 381.367 272.012C383.713 272.598 385.913 271.132 386.499 268.932C387.086 266.732 385.62 264.386 383.566 263.799C380.487 262.919 377.26 262.333 374.181 262.039C374.474 262.039 375.061 262.039 375.354 262.333C374.181 262.039 372.714 262.039 371.688 261.746C371.981 261.746 372.568 261.746 372.861 262.039C370.808 261.746 368.901 261.453 366.555 261.159C365.382 260.866 364.208 260.866 362.889 260.573C363.182 260.573 363.769 260.573 364.062 260.866C361.715 260.573 359.516 260.28 357.169 260.28C355.116 260.28 353.503 260.28 351.45 259.986C347.784 259.4 343.971 259.693 340.304 259.4C336.638 259.106 332.532 259.106 328.866 259.106H316.547C312.587 259.106 308.188 259.106 304.228 259.4C301.882 259.4 299.975 259.693 297.629 259.693H291.03C282.377 259.693 273.872 259.986 265.219 259.4C260.673 259.106 256.42 259.4 251.727 259.693C247.474 259.986 243.075 259.693 238.529 259.693H211.985C207.732 259.693 203.626 259.4 199.373 259.4C194.827 259.4 190.574 259.4 185.881 259.106C177.228 258.813 168.723 258.813 160.07 259.106C157.724 259.106 155.524 259.4 153.471 259.4H147.165C142.912 259.4 138.513 259.4 134.26 259.693C130.007 259.986 125.901 259.693 121.648 259.693C117.395 259.4 112.995 259.693 108.449 259.4C104.196 259.4 99.7967 258.813 95.5438 258.52C91.291 258.226 87.1847 257.933 82.9319 257.933C78.9723 257.933 74.866 257.346 70.9065 257.346H65.7737C64.3072 257.053 61.9608 257.053 60.0543 257.053ZM366.115 261.453H365.528C365.822 261.159 365.822 261.453 366.115 261.453Z" fill="#1C1B20"/>
<path d="M335.757 159.53C333.411 160.117 331.211 160.997 328.865 161.877L321.972 164.516C318.013 165.983 313.613 167.45 309.654 169.063C309.36 169.063 309.36 169.063 309.067 169.356C307.6 169.943 306.427 170.529 305.107 171.116C301.441 172.582 297.628 174.195 293.962 175.662C293.375 175.955 293.082 175.955 292.495 176.249C288.536 178.008 284.43 179.328 280.47 180.795C276.51 182.261 272.404 183.874 268.445 185.341C266.392 185.928 264.485 186.807 262.432 187.394C260.086 188.274 258.179 189.154 255.833 189.74L249.82 191.5C247.767 192.087 245.567 192.967 243.514 193.553C239.261 195.02 234.715 196.193 230.315 197.22C226.062 198.686 221.516 200.153 217.117 201.179C208.464 204.112 199.959 206.605 191.306 209.538C182.507 212.471 173.855 215.844 165.056 218.631L152.15 222.884C147.898 224.35 143.791 225.963 139.538 227.43L119.741 235.202C116.661 236.375 113.435 237.842 110.355 238.869L100.089 243.121C100.383 242.828 100.676 242.828 101.262 242.535C98.3295 243.708 95.5431 244.588 92.9034 245.615L84.251 248.987C84.251 248.987 83.9577 248.987 83.9577 249.281C83.6644 249.281 83.3711 249.574 83.0778 249.574C81.3179 250.161 79.9981 251.041 78.2383 251.921C76.1852 253.094 74.2787 254.267 72.2256 255C70.1725 256.173 69.5859 258.96 70.7591 261.013C71.3457 261.893 72.2256 262.773 73.3988 263.066C74.572 263.359 75.7452 263.066 76.7718 262.479C79.8514 261.013 83.0778 259.106 86.1574 257.64C86.4507 257.347 87.0373 257.347 87.3306 257.053C88.2105 256.76 89.0904 256.173 89.9703 255.88C92.9034 254.707 95.983 253.534 98.7694 252.507C102.436 251.041 106.249 249.574 109.622 247.961C109.328 248.254 109.035 248.254 108.448 248.254C112.408 246.494 116.807 245.175 120.767 243.415C124.727 241.655 129.126 240.335 133.086 238.575L145.991 233.442C149.951 231.683 154.35 230.363 158.603 229.19C167.402 226.257 176.054 223.47 184.854 220.391C189.106 218.924 193.213 217.458 197.466 216.138L210.371 211.885C214.624 210.418 219.17 208.952 223.863 207.632C228.116 206.165 232.222 204.992 236.475 203.672C240.728 202.499 245.274 201.033 249.673 199.713C253.926 198.246 258.032 197.073 262.285 195.753C267.711 193.7 273.431 191.794 278.857 189.74C284.87 187.394 290.589 185.488 296.308 182.848C296.015 183.141 295.722 183.141 295.135 183.434L301.148 180.795C304.521 179.328 308.04 177.862 311.12 176.542C310.827 176.542 310.827 176.542 310.533 176.835L312.293 175.955C315.96 174.489 320.066 173.022 323.732 171.702C326.078 170.822 327.985 169.943 330.331 169.356C332.678 168.476 334.878 167.889 337.224 167.01C339.57 166.423 340.89 164.077 340.157 161.877C339.57 160.117 337.811 158.797 335.904 158.797C336.637 159.237 336.051 159.237 335.757 159.53ZM304.961 170.969C304.667 170.969 304.667 170.969 304.374 171.262C304.667 170.969 304.961 170.969 304.961 170.969ZM312 176.982C312.293 176.982 312.293 176.689 312.587 176.689C312.293 176.982 312.293 176.982 312 176.982Z" fill="#1C1B20"/>
<path d="M213.891 36.1965C211.838 36.1965 209.638 36.4898 207.585 36.4898C203.626 36.7831 199.52 36.7831 195.56 37.0764C191.014 37.663 186.761 38.2497 182.068 38.8363C180.015 39.1296 178.109 39.7162 176.055 40.0095C174.002 40.5961 172.096 40.8894 170.043 41.1827C166.083 42.0626 161.684 42.9425 157.724 44.1157C153.764 45.2889 149.952 46.4621 146.285 47.782C142.032 49.2485 137.633 51.1549 133.673 52.9147C130.007 54.6746 126.194 56.2877 122.528 58.3408C118.861 60.1006 115.049 61.7138 111.676 63.7669C105.663 66.8466 99.9435 70.9528 94.5174 75.2057C91.8777 77.2588 89.0913 79.1653 86.4516 81.5117L83.0786 84.8847C81.9054 86.0579 80.7322 87.2311 79.999 88.2576C77.6526 90.6041 75.7461 92.8038 73.693 95.1502C71.6399 97.4967 70.0267 99.6964 68.2669 102.043L64.8939 106.296C63.7207 107.762 62.8408 109.375 61.9609 111.135C59.9078 114.508 58.2946 118.321 56.8281 121.987C53.7485 129.467 52.2819 137.092 51.1087 144.865L50.2288 150.878C49.9355 153.517 49.6422 155.717 49.3489 158.357C48.7623 162.316 48.7623 166.716 48.469 170.969C48.1757 175.222 48.1757 179.621 48.469 183.874C48.7623 187.834 49.0556 191.647 49.6422 195.606C50.2288 199.859 50.8154 204.259 51.6953 208.511C52.2819 212.471 53.1618 216.284 54.335 220.244C54.9216 222.297 55.2149 223.91 55.8016 225.963C56.3882 228.016 56.9748 229.629 57.8547 231.389C58.7346 233.442 59.6145 235.349 60.2011 237.402C60.7877 239.162 61.3743 240.775 61.9609 242.828C62.5475 244.001 62.8408 245.174 63.4274 246.201C64.3073 248.547 65.1872 250.454 65.7738 252.8L68.4135 259.693L69.2935 261.452C69.8801 262.626 70.1734 263.506 71.3466 264.092C72.2265 264.679 73.693 264.972 74.7195 264.679C75.8928 264.385 76.7727 263.506 77.3593 262.626C77.9459 261.746 78.2392 260.279 77.9459 259.253C77.3593 258.08 76.7727 256.613 76.1861 255.586L73.5463 248.694C72.9597 247.227 72.6664 245.761 72.0798 244.441C71.4932 242.974 70.9066 241.801 70.32 240.481C69.7334 239.015 69.1468 237.548 68.8535 235.935C68.2669 233.882 67.387 232.269 66.5071 230.216C65.0406 226.843 63.8674 223.03 63.1341 219.657C62.2542 215.991 61.3743 212.471 60.7877 208.805C59.9078 204.845 59.3212 201.032 59.0279 197.073L58.148 188.42C57.8547 184.754 57.5614 180.648 57.5614 176.982C57.5614 173.315 57.8547 169.502 57.8547 165.543C58.148 161.876 58.4413 158.357 59.0279 154.691C59.3212 152.051 59.9078 149.851 60.2011 147.505C60.7877 144.865 61.081 142.079 61.6676 139.439C62.8408 134.599 64.014 129.76 65.6272 125.067C66.8004 122.427 67.9736 119.934 69.2935 117.295C70.4667 114.948 71.9332 112.748 73.5463 110.402C74.4262 109.229 75.3061 108.349 76.1861 107.322C76.7727 106.442 77.3593 105.562 78.2392 104.683C80.8789 101.603 83.6652 98.3766 86.305 95.5902C89.238 92.5105 92.3177 89.2842 95.3973 86.7911C97.4504 85.0313 99.6502 83.7115 101.703 81.9516C103.17 80.7784 104.636 79.6052 106.25 78.872C108.009 77.6988 109.329 76.5256 111.089 75.499C114.462 73.4459 117.982 71.8327 121.355 70.0729C128.834 66.7 135.873 62.887 143.352 59.8073C150.538 56.8743 157.871 54.3813 165.643 52.6214C169.603 51.7415 173.709 50.8616 177.375 49.9817C179.428 49.6884 181.335 49.1018 183.095 48.5152L189.107 47.6353C192.04 47.342 195.12 46.7554 197.906 46.7554C200.986 46.4621 203.919 46.4621 206.999 46.4621C210.372 46.1688 213.598 45.8755 216.971 46.1688C220.051 46.1688 223.277 46.4621 226.357 47.0487C229.436 47.6353 232.663 48.5152 235.742 49.3951C238.822 50.275 242.048 51.1549 245.128 52.3281C247.474 53.5014 249.381 54.6746 251.727 55.7011C254.074 56.8743 256.274 58.0475 258.62 59.3674C260.673 60.5406 262.579 61.7138 264.339 63.0337C266.392 64.5002 268.592 65.9667 270.645 67.5798C272.992 69.3397 274.898 70.9528 277.245 73.0059C279.298 75.0591 281.204 76.6722 283.551 78.432C285.017 79.6052 286.484 81.0717 288.097 82.3916C289.563 83.8581 291.176 85.0313 292.643 86.3512C295.576 88.9909 298.069 91.484 300.415 94.7103L303.055 98.0833C303.055 98.0833 303.055 97.79 302.762 97.79C305.108 100.87 307.308 104.389 309.654 107.469C311.708 110.402 313.321 113.188 315.081 116.268C317.134 119.201 318.454 122.281 320.507 125.067C321.68 126.827 322.56 128.44 323.586 130.2C324.466 131.666 325.346 133.279 326.226 134.746C327.399 136.799 328.572 138.999 329.306 141.345C330.186 143.398 331.359 145.012 332.239 147.065C332.825 148.238 333.119 149.411 333.705 150.438C334.292 151.904 334.585 153.077 335.172 154.397C335.465 155.57 336.052 156.45 336.345 157.477C336.638 158.064 336.932 158.65 336.932 159.237V161.876C336.638 163.05 336.638 164.223 337.518 165.249C338.105 166.129 338.985 167.009 340.158 167.303C342.211 167.889 344.997 166.716 345.291 164.37C345.584 162.903 345.584 161.29 345.584 159.823C345.584 158.65 345.291 157.184 344.997 156.157C344.411 154.984 344.117 153.811 343.531 152.784C342.944 151.318 342.358 149.704 341.771 148.238C340.891 146.478 340.305 144.572 339.425 142.812C338.838 141.052 337.665 139.732 337.078 138.266C336.198 136.799 335.612 135.186 334.732 133.426C333.852 131.666 332.972 130.346 332.092 128.88C331.212 127.413 330.332 125.947 329.452 124.334C328.572 122.574 327.693 121.254 326.519 119.788C325.639 118.321 324.76 116.855 324.173 115.535L321.533 111.282C319.773 108.349 318.16 105.562 316.107 102.923C313.761 99.5498 311.561 96.0301 308.921 92.9505C309.215 93.2438 309.508 93.5371 309.508 93.8304C307.748 91.484 306.428 89.5775 304.375 87.2311C302.909 85.4713 301.295 83.8581 299.536 82.0983C297.776 80.3385 296.163 79.0186 294.109 77.2588C292.056 75.2057 289.857 73.5925 287.51 71.8327C286.337 70.9528 285.164 69.7796 284.137 68.8997C282.377 67.4332 281.057 65.9667 279.298 64.6468C276.218 62.0071 272.992 59.8073 269.912 57.4609C267.566 55.7011 265.073 54.3813 262.433 52.6214C259.5 50.8616 256.713 49.5418 253.78 47.782C250.407 46.0222 247.181 44.409 243.515 43.2358C241.755 42.6492 239.849 42.0626 238.089 41.7693C236.329 41.476 234.423 40.8894 232.663 40.3028C228.703 39.1296 224.304 38.8362 220.344 38.5429C218.291 38.5429 216.384 38.2496 214.331 38.2496C214.185 36.1965 213.891 36.1965 213.891 36.1965ZM58.0013 154.104V154.691C57.708 154.397 57.708 154.104 58.0013 154.104Z" fill="white"/>
<path d="M127.514 22.8512C126.341 23.1445 124.874 23.1445 123.848 23.4378L121.208 24.3177C119.448 24.9043 117.835 25.7842 116.075 26.9574C115.195 27.544 114.315 28.1306 113.435 29.0105C112.555 29.8904 111.969 30.7703 111.382 31.6502C110.209 33.4101 109.036 35.6098 108.449 37.6629C107.569 39.716 107.276 41.9158 106.983 44.2622C106.689 46.6086 106.983 49.1017 107.276 51.4481C107.569 52.328 107.569 53.5012 107.863 54.3811C108.156 55.5544 108.742 56.7276 109.036 57.4608C109.916 59.5139 111.382 60.5405 112.995 61.7137C114.755 62.8869 116.955 63.4735 119.008 64.3534C119.301 64.6467 119.888 64.6467 120.181 64.94C121.354 65.2333 122.528 64.94 123.554 64.3534C124.434 63.7668 125.314 62.8869 125.607 61.7137C125.901 60.5405 125.901 59.3673 125.021 58.3407C124.434 57.1675 123.554 56.8742 122.381 56.2876C121.208 55.9943 120.035 55.4077 119.301 55.1144C118.715 54.8211 118.128 54.5278 117.248 53.9412L116.955 53.6479C116.662 53.3546 116.662 53.0613 116.368 52.768C115.782 51.3015 115.488 49.835 115.195 48.2218C114.902 46.462 114.902 45.1421 115.195 43.3823C115.488 41.9158 115.782 40.4493 116.368 38.8361C116.955 37.3696 117.835 36.1964 118.421 35.1699L119.595 33.9967C120.475 33.4101 121.648 32.5302 122.674 32.2368C124.141 31.6502 125.754 31.0636 127.22 30.7703C128.98 30.477 130.3 30.7703 132.06 30.7703C132.353 30.7703 132.94 31.0636 133.233 31.0636C134.406 31.6502 135.58 32.2368 136.313 32.8234C137.193 33.41 137.779 34.29 138.366 34.8766C139.246 36.0498 139.832 37.5163 140.419 38.8361C141.006 40.3027 141.299 41.7692 141.592 43.089C141.886 44.5555 141.886 46.1687 141.592 47.6352C141.592 49.9816 143.645 51.8881 145.845 51.8881C148.045 51.8881 150.098 49.835 150.098 47.6352C150.391 43.9689 149.805 39.8627 148.338 36.4897C147.752 34.7299 146.872 33.1168 145.992 31.6502C145.112 29.8904 143.939 28.5706 142.619 27.3974C141.152 25.9309 139.686 25.0509 138.073 24.3177C137.193 23.7311 136.313 23.4378 135.14 23.1445C135.433 23.4378 134.26 23.4378 133.087 23.1445C131.913 23.1445 131.033 22.8512 130.007 22.8512C129.274 22.5579 128.687 22.8512 127.514 22.8512ZM252.607 70.2195C252.021 69.9262 251.434 69.9262 250.847 69.9262C248.501 70.2195 246.594 70.2195 244.248 71.0994C242.195 71.686 240.288 72.5659 238.529 73.7391C236.475 75.2056 234.862 76.8188 233.396 79.1652C231.929 81.5116 231.636 84.0046 231.343 86.6444C231.049 89.2841 231.636 92.0705 233.103 94.4169C234.276 96.1767 236.036 97.3499 237.355 98.6698C238.822 99.843 240.435 100.723 242.195 101.309C243.661 101.896 245.275 102.189 246.741 102.776C248.794 103.656 250.701 104.829 252.754 106.149C253.927 107.029 254.807 108.202 255.687 109.229C256.567 110.402 257.447 111.575 258.033 112.895C258.913 114.068 259.5 115.535 260.38 116.561C261.553 118.908 262.433 120.814 263.753 123.16C264.633 124.627 265.512 126.093 266.832 127.12C268.592 128.587 270.499 129.76 272.552 130.2C273.725 130.493 274.605 130.786 275.631 130.786C277.391 131.08 278.711 130.493 280.178 129.906C281.644 129.32 283.111 128.147 284.137 126.973C285.31 125.8 286.484 124.334 287.217 123.014C287.803 122.134 288.097 120.961 288.39 119.934C288.683 118.761 288.977 117.294 289.27 115.975C289.856 112.015 289.27 107.615 288.097 103.656C287.51 101.896 286.923 100.283 286.044 98.5231L284.284 95.1501C283.111 92.8037 281.644 90.8972 280.617 88.8441C279.151 85.9111 277.244 83.4181 275.191 81.0716C274.018 79.6051 272.552 78.4319 270.939 77.6987C269.472 77.1121 268.299 76.2321 266.979 75.6455C266.686 75.3522 266.099 75.3522 265.806 75.0589C264.339 73.8857 262.873 73.0058 261.846 72.1259C261.26 71.5393 260.673 71.246 259.793 70.9527C259.206 70.6594 258.62 70.3661 257.74 70.0728C256.567 69.7795 255.393 69.7795 254.66 69.7795H254.367C253.634 69.4862 253.194 69.7795 252.607 70.2195ZM250.847 78.2853C251.727 78.2853 252.607 77.992 253.194 77.6987C253.78 77.992 254.367 77.992 254.954 77.992H255.54C256.42 78.5786 257.3 79.1652 258.18 79.7518L260.82 81.5116C261.406 82.0982 261.993 82.3915 262.579 82.6848C263.166 82.9781 264.046 83.2714 264.632 83.5647C266.099 84.1513 267.272 84.7379 268.592 85.6178L271.232 88.2575C272.992 90.8973 274.311 93.3903 276.071 96.03C277.538 98.3765 278.711 100.576 279.738 102.923C280.617 105.269 281.497 107.762 281.791 110.402C282.084 112.162 281.791 113.775 281.791 115.535C281.497 116.415 281.497 117.588 280.911 118.468C280.617 119.054 280.324 119.641 280.031 119.934C279.444 120.814 278.564 121.401 277.978 121.987C277.684 122.281 277.391 122.281 277.391 122.281H277.098C276.511 122.281 276.218 121.987 275.631 121.987C274.751 121.694 273.872 121.107 273.285 120.521L272.698 119.934C271.232 117.881 270.352 115.681 269.325 113.628L267.566 110.255C266.686 108.789 265.806 107.615 265.219 106.589C264.339 105.122 263.166 103.656 262.139 102.336C260.966 100.87 259.793 99.9896 258.473 98.9631C255.393 96.6166 251.874 95.0035 248.501 93.8303C247.621 93.537 246.448 93.2437 245.568 92.9504C244.395 92.3638 243.221 91.7772 242.488 90.8973C242.195 90.604 241.608 90.3106 241.315 89.724C241.315 89.724 241.315 89.4307 241.022 89.4307C241.022 89.1374 240.728 88.8441 240.728 88.5508V85.9111C240.728 85.3245 241.022 84.7379 241.315 84.1513C241.608 83.858 241.608 83.2714 241.902 82.9781C242.488 82.3915 243.075 81.5116 243.955 80.925C244.541 80.3384 245.421 80.0451 246.008 79.7518L249.381 78.8719C249.381 78.5786 249.967 78.5786 250.847 78.2853ZM281.204 115.828V116.121C280.911 116.121 281.204 116.121 281.204 115.828ZM213.305 55.9943C212.425 56.2876 211.545 56.5809 210.665 57.1675C209.492 57.7541 208.612 58.634 207.585 59.5139C205.532 61.2737 203.919 63.7668 203.039 66.4065C202.159 68.753 202.159 70.9527 203.039 73.2991C203.626 75.3522 204.799 76.9654 206.119 78.7252C207.585 80.485 209.492 81.6582 211.545 82.0982C212.718 82.3915 214.185 82.6848 215.504 82.6848C216.971 82.9781 218.584 82.9781 220.051 82.3915C222.104 81.8049 223.424 80.3384 224.89 79.0185C226.063 77.8453 227.236 76.6721 227.823 75.3522C228.41 74.4723 228.703 73.2991 228.996 72.2726C229.29 71.0994 229.583 69.9262 229.29 68.8996C229.29 67.1398 228.703 65.9666 228.116 64.6467C227.53 63.1802 226.357 62.007 225.183 60.9804C224.303 60.3938 223.424 59.8072 222.544 59.8072C222.544 59.5139 222.25 59.2206 222.25 59.2206C221.664 58.0474 220.784 57.7541 219.611 57.1675L216.971 56.2876C216.384 56.2876 215.798 55.9943 215.211 55.9943C215.064 55.4077 214.185 55.701 213.305 55.9943ZM215.944 63.9135C216.531 64.2068 217.411 64.2068 217.997 64.5001C218.291 64.5001 218.584 64.5001 218.584 64.7934C218.877 65.38 219.171 65.9666 219.464 66.2599L220.344 67.1398C220.637 67.4331 220.637 67.7264 220.93 68.0197V69.1929C220.93 69.7795 220.637 70.0728 220.637 70.6594C220.637 70.9527 220.344 70.9527 220.344 71.246C219.757 72.1259 218.877 73.0058 217.997 73.5924L217.704 73.8857H215.651C214.771 73.8857 214.185 73.5924 213.598 73.2991C213.305 73.2991 213.305 73.0058 213.011 73.0058L212.425 72.4192C212.131 71.8326 211.545 71.246 211.252 70.6594C211.252 70.3661 210.958 70.0728 210.958 69.7795V68.8996C210.958 68.6063 211.252 68.0197 211.252 67.7264C211.545 67.1398 211.838 66.8465 212.131 66.2599L213.598 64.7934L215.358 63.9135H215.944ZM82.6386 114.361C81.4654 114.655 80.8788 115.535 79.9988 116.415C78.8256 117.881 77.9457 119.348 77.0658 120.667C76.1859 122.134 75.306 123.747 74.4261 125.214C72.6663 128.587 71.3464 132.106 70.1732 135.772C69 139.145 68.4134 142.958 68.1201 146.625C67.8268 148.384 67.8268 149.998 67.8268 151.757V156.89C67.5335 159.237 69.8799 161.143 72.0797 161.143C73.2529 161.143 74.4261 160.556 75.1594 159.97C76.0393 159.09 76.3326 157.917 76.3326 156.89V151.171C76.3326 149.411 76.3326 147.505 76.6259 145.745C76.9192 143.692 77.2125 141.492 78.0924 139.439C78.679 137.092 79.5589 134.599 80.7321 132.253C81.612 130.2 82.4919 128.293 83.6651 126.533C84.8383 124.48 86.3049 122.574 87.6247 120.521C88.2113 119.641 88.2113 118.174 88.2113 117.148C87.918 115.975 87.0381 115.095 86.1582 114.508C85.5716 114.215 84.6917 113.921 83.8118 113.921C83.2252 114.361 82.9319 114.361 82.6386 114.361ZM67.6802 169.209C66.8003 170.089 66.2137 171.262 66.507 172.289C66.8003 174.048 66.8003 175.368 67.0936 177.128C67.3869 178.301 67.3869 179.474 67.6802 180.794C67.6802 181.674 67.9735 182.554 68.2668 183.434C68.5601 184.607 69.1467 185.487 70.3199 186.074C71.1998 186.66 72.6663 186.954 73.6929 186.367C74.8661 186.074 75.746 185.194 76.3326 184.314C76.9192 183.434 77.2125 181.968 76.6259 180.941C76.0393 179.768 76.0393 178.301 75.746 177.275C75.746 176.395 75.4527 175.515 75.4527 174.342C75.4527 173.462 75.1594 172.582 75.1594 171.995C75.1594 170.822 74.8661 169.649 73.9862 168.916C73.1063 168.036 71.933 167.742 70.9065 167.742C69.8799 167.742 68.5601 168.476 67.6802 169.209ZM205.679 233.882C203.626 234.175 201.719 235.055 199.959 236.228C197.906 237.695 195.706 239.161 194.24 241.068L193.36 242.828C192.774 242.534 192.48 242.534 191.894 242.241C189.84 241.361 188.227 240.481 186.174 239.601C184.414 238.721 182.508 238.428 180.455 237.842C177.522 236.962 174.735 236.668 171.802 237.255C169.456 237.842 167.256 238.721 165.203 240.188C164.03 241.068 163.15 241.948 162.27 243.121C161.39 244.001 161.097 245.174 160.51 246.201C159.337 248.84 159.63 251.627 160.217 254.56C160.804 256.906 161.977 259.106 163.59 260.866C164.177 261.746 165.056 262.332 165.643 263.212L168.283 265.852C169.163 266.732 170.043 267.025 171.362 267.025C172.536 267.025 173.709 266.439 174.442 265.852C175.909 264.385 176.202 261.306 174.442 259.839C172.682 258.373 171.069 256.906 169.603 255.293C169.309 254.706 169.016 254.413 168.723 253.827C168.429 253.24 168.429 252.947 168.429 252.36V250.307C168.429 250.014 168.723 249.427 168.723 249.134C168.723 248.84 169.016 248.547 169.016 248.254L169.896 247.374C170.483 247.081 171.069 246.494 171.656 246.201C172.242 245.907 173.122 245.614 173.709 245.614H175.762C176.935 245.907 178.402 246.201 179.428 246.494C180.601 246.787 181.775 247.374 182.801 247.667C183.974 248.254 185.148 248.547 185.881 249.134C187.347 249.72 188.814 250.307 189.84 251.187C190.427 251.48 191.014 252.067 191.894 252.36C193.947 253.533 196.44 253.533 198.2 251.773C199.666 250.307 199.666 248.4 200.253 246.641V246.347L201.133 245.467C202.306 244.588 203.479 243.708 204.506 243.121C205.385 242.828 206.265 242.534 207.439 242.534C209.198 242.241 210.812 242.241 212.571 242.534C214.038 242.828 215.504 243.121 216.824 243.708C219.171 244.588 221.077 246.054 223.13 247.374L224.89 249.134C226.063 251.187 228.85 251.773 230.903 250.6C232.956 249.427 233.542 246.934 232.369 244.588C231.196 242.534 229.436 241.215 227.823 240.041C226.357 238.868 224.89 237.988 223.277 237.108C219.611 234.762 215.504 234.029 211.545 233.735H210.372C209.345 233.295 207.292 233.589 205.679 233.882Z" fill="white"/>
<path d="M299.83 203.672C297.483 203.965 295.283 204.258 292.937 205.138C290.591 205.725 288.097 206.605 286.044 208.071C283.991 208.951 282.378 210.711 280.618 211.738C278.858 213.204 277.539 214.671 276.365 216.284C274.606 218.044 273.286 219.95 272.113 222.003C270.939 223.763 269.766 225.376 269.033 227.136C269.033 227.429 268.74 227.723 268.74 228.016C265.367 224.643 260.087 223.763 255.541 223.763C251.581 223.763 247.182 224.35 243.516 225.523C241.169 226.109 238.969 227.283 237.21 228.603C236.036 229.189 235.156 230.362 234.277 231.242C233.397 232.122 232.81 233.002 231.93 233.882C229.877 236.228 228.85 238.721 227.384 241.655C227.091 242.534 226.797 243.414 226.797 244.294C226.504 245.761 226.504 247.374 226.504 248.84C226.504 251.187 228.557 253.093 230.757 253.093C233.103 253.093 235.01 251.04 235.01 248.84V245.761C235.01 245.174 235.303 244.588 235.596 243.708L238.236 239.455C239.116 238.282 240.289 237.108 241.316 236.375L244.689 234.615C246.742 233.735 248.648 233.442 250.701 233.149C253.341 232.855 255.834 232.562 258.767 232.855C259.647 233.149 260.527 233.149 261.407 233.442C261.7 233.735 262.287 233.735 262.58 234.029C263.167 234.322 263.46 234.909 263.753 235.202L266.393 239.455C266.686 240.041 266.686 240.628 266.98 240.921C267.566 242.388 269.326 242.974 270.646 242.974C272.699 242.974 274.312 241.508 274.606 239.895C274.899 239.015 274.899 238.135 274.899 237.255C275.192 235.495 275.779 234.175 276.365 232.709C276.952 231.242 277.539 229.776 278.419 228.749C279.298 227.283 280.472 225.816 281.352 224.496C283.991 221.417 286.484 218.777 289.417 216.137C290.297 215.551 291.177 214.964 292.35 214.377C294.99 213.497 297.483 212.618 300.123 212.324C301.883 212.031 303.496 212.031 305.256 212.031C307.309 212.324 308.922 213.204 310.682 213.791C311.268 214.084 311.855 214.377 312.148 214.671C312.735 214.964 313.321 215.257 313.615 215.844C314.788 216.724 315.668 217.604 316.548 218.777C317.721 220.243 318.601 221.71 319.188 223.03C319.774 224.496 320.067 226.109 320.361 227.576C320.654 229.922 320.654 232.415 320.361 234.762C319.774 238.135 318.014 241.654 317.281 244.734C316.988 245.614 316.694 246.201 316.401 247.081C316.108 247.96 315.815 249.427 316.401 250.16C316.694 251.04 316.988 251.627 317.574 252.213C318.161 252.8 318.748 253.093 319.627 253.387C321.681 253.973 323.294 252.8 325.054 251.92C325.64 251.92 325.933 251.627 326.52 251.627H329.6C330.48 251.92 331.653 251.92 332.533 252.507C333.413 252.8 334.293 253.387 334.879 253.973C335.759 254.56 336.346 255.44 336.932 256.32C338.105 257.786 338.985 259.399 339.865 261.159C340.159 261.746 340.159 262.626 340.452 263.212C341.038 265.559 343.532 266.878 345.585 266.292C347.931 265.705 349.251 263.212 348.518 261.159C347.638 258.226 346.465 255.146 344.558 252.8C342.505 249.867 340.012 247.374 336.786 245.907C333.853 244.441 330.48 243.561 327.107 243.854C327.693 242.681 327.987 241.215 328.573 240.188C330.04 235.642 329.746 231.096 328.866 226.403C328.573 224.35 327.987 222.15 327.107 220.097C326.227 218.044 325.054 216.431 324.027 214.964C322.854 213.204 321.387 211.884 319.774 210.418C318.894 209.831 318.014 208.951 316.841 208.365C315.668 207.485 314.495 207.191 313.468 206.605C311.415 205.725 309.802 205.138 307.455 204.552C306.282 204.258 304.816 204.258 303.789 204.258C301.736 203.672 300.563 203.672 299.83 203.672ZM159.045 239.895H156.112C153.472 239.895 150.979 240.188 148.632 240.775C148.046 240.775 147.752 240.775 147.166 241.068C147.459 241.068 148.046 241.068 148.339 240.775C145.699 241.068 142.913 241.068 140.273 240.775H136.9C135.14 240.775 133.527 241.068 131.767 241.361C131.181 241.361 130.301 241.655 129.714 241.655C129.128 241.655 128.541 241.948 127.955 241.948C127.075 241.948 125.901 242.241 125.022 242.828C123.262 244.001 122.675 245.467 122.675 247.374V250.454C122.675 251.92 122.382 253.387 122.382 254.706C122.382 256.76 122.675 258.959 123.262 261.012C123.555 263.359 126.341 264.385 128.395 263.945C129.568 263.652 130.448 262.772 131.034 261.892C131.621 260.719 131.621 259.839 131.328 258.519C131.328 257.933 131.034 257.346 131.034 256.466C130.741 254.413 130.741 252.8 131.034 250.747V249.574C131.621 249.574 132.501 249.28 133.087 249.28C134.554 248.987 135.727 248.987 137.047 248.987H144.819C146.873 248.987 148.486 248.694 150.246 248.4C149.952 248.4 149.366 248.4 149.072 248.694C150.246 248.4 151.419 248.4 152.445 248.107C153.912 247.814 155.378 247.814 156.991 247.814H159.338C160.218 247.814 161.098 247.521 161.978 247.814C163.151 247.814 164.324 247.227 165.057 246.641C165.937 245.761 166.231 244.588 166.231 243.561C166.231 242.388 165.644 241.215 165.057 240.481C164.177 239.601 163.297 239.308 161.978 239.308H161.391C160.364 239.601 159.631 239.895 159.045 239.895ZM132.647 241.068H132.061C132.061 241.361 132.354 241.361 132.647 241.068Z" fill="white"/>
<path d="M153.912 223.616C152.738 223.91 152.152 224.79 151.272 225.67C150.685 226.549 150.392 227.429 149.805 228.603C149.512 229.189 149.512 229.776 149.219 230.362L148.339 233.735V237.108C148.339 239.455 148.925 241.361 149.512 243.708C150.099 246.054 152.592 247.374 154.645 246.641C156.991 246.054 158.311 243.561 157.725 241.508L156.845 238.135C156.845 236.962 156.551 235.495 156.551 234.469C156.551 233.882 156.845 233.589 157.138 233.002C157.431 232.415 157.431 231.829 157.725 231.242C158.018 230.949 158.018 230.656 158.311 230.362C158.898 229.482 158.898 228.016 158.604 226.989C158.311 225.816 157.431 224.936 156.551 224.35C155.965 224.056 155.085 223.763 154.205 223.763C154.498 223.616 153.912 223.616 153.912 223.616ZM242.489 196.193C241.316 198.246 241.902 200.739 243.955 202.205C244.835 202.792 245.715 203.085 246.302 203.672L247.475 204.845C248.648 206.312 249.528 208.218 250.408 209.978C251.288 212.324 251.874 214.524 252.461 217.164C252.754 220.097 252.754 223.176 252.754 225.963V226.549C252.168 228.896 253.341 231.096 255.687 231.682C258.034 232.269 260.527 230.802 260.82 228.603C261.7 225.523 261.407 221.71 261.113 218.337C260.82 215.257 260.527 212.031 259.354 208.951C258.474 206.312 257.007 203.819 255.687 201.472C254.808 200.006 253.928 198.832 252.754 197.806C251.288 196.339 249.821 195.459 248.208 194.726C247.622 194.433 246.742 194.14 246.155 194.14C244.835 194.14 243.369 195.019 242.489 196.193ZM260.234 190.767C259.06 191.06 258.18 191.94 257.594 192.82C256.421 194.873 257.007 197.659 259.06 198.832C260.527 199.419 261.993 200.299 263.02 201.179C264.486 202.352 265.953 204.112 266.98 205.432C268.446 207.485 269.619 209.098 270.646 211.444C271.526 213.791 272.112 215.991 272.406 218.337C272.406 219.217 272.406 220.39 272.699 221.27C272.992 222.443 272.992 223.616 273.872 224.35C274.752 225.23 275.925 225.523 276.952 225.523C277.978 225.523 279.298 224.936 280.031 224.35C280.618 223.47 281.498 222.297 281.205 221.27C280.911 219.51 280.911 217.897 280.618 216.137C280.325 214.964 280.031 213.498 279.738 212.471C278.858 209.538 277.685 206.752 276.072 204.112C274.312 201.472 272.406 199.272 270.353 196.926C269.179 195.753 268.006 194.873 266.98 193.993C265.806 193.113 264.34 192.526 263.313 191.94C262.433 191.647 261.847 191.353 260.967 191.353C261.113 190.473 260.82 190.767 260.234 190.767ZM360.983 95.7368C360.103 96.3234 359.223 97.2033 358.93 98.3765C358.636 99.2564 358.636 101.016 359.516 101.749C360.396 102.923 361.276 104.096 362.156 104.829C363.329 106.296 364.209 107.909 365.089 109.375C366.262 110.842 367.436 112.308 368.462 113.921C369.635 115.388 370.515 117.001 371.102 118.761C372.275 121.694 373.155 124.48 373.742 127.413C373.742 128 374.035 128.587 374.035 129.173C374.328 132.253 374.621 135.479 374.328 138.266C373.741 141.199 372.862 144.278 371.688 146.918C371.102 148.384 370.222 149.851 369.342 150.878C367.289 153.224 365.382 155.424 363.036 157.77L359.663 161.143C358.196 162.316 357.023 163.783 355.703 165.103C354.237 166.862 352.624 168.476 351.451 170.529C350.277 172.289 349.397 174.195 348.811 175.955C348.224 178.008 347.638 179.914 347.638 182.261V191.647C347.638 192.233 347.344 192.82 347.051 193.406C346.758 193.993 346.464 194.873 345.878 195.459L345.291 196.046C344.705 196.339 344.118 196.339 343.531 196.633C340.892 196.926 338.399 197.219 335.759 197.219C332.679 197.219 329.453 196.633 326.373 197.806C324.027 198.392 322.707 200.739 323.294 202.939C323.88 205.285 326.373 206.605 328.426 205.872C328.72 205.872 329.013 205.578 329.306 205.578H339.865C344.118 205.285 348.957 204.992 352.184 201.619C353.357 200.446 353.944 198.979 354.823 197.659L355.703 195.019C355.997 193.846 355.997 192.673 356.29 191.94V187.247C356.29 185.487 356.29 183.874 356.583 181.821C356.877 180.354 357.17 178.888 357.757 177.568C358.343 176.395 358.93 175.222 359.81 174.488C360.983 173.022 362.156 171.555 363.476 170.235C364.649 168.769 366.116 167.596 367.435 166.569C369.782 164.223 371.982 162.023 374.035 159.383C375.501 157.917 376.674 156.45 377.701 154.837C378.874 153.077 379.461 151.464 380.341 149.704C381.807 146.038 382.981 142.225 383.274 138.266C383.567 135.186 383.274 131.666 382.687 128.587C382.394 126.24 382.101 124.04 381.514 121.694C380.927 119.934 380.341 118.321 379.461 116.561C378.581 114.508 377.701 112.602 376.528 110.842C375.648 109.375 374.475 108.202 373.448 106.882C372.568 105.416 371.688 104.243 370.808 102.923C370.222 101.749 369.342 100.87 368.755 99.9896C368.169 99.1097 367.582 98.5231 366.996 97.6432C366.409 96.7633 365.529 95.8834 364.356 95.5901C364.062 95.5901 363.476 95.2968 363.183 95.2968C362.449 95.1502 361.569 95.1502 360.983 95.7368Z" fill="white"/>
<path d="M386.205 142.665C385.911 143.838 385.911 145.305 385.618 146.331C385.618 147.211 385.911 148.091 385.911 148.971C385.911 149.264 386.205 149.851 386.205 150.144C386.498 151.024 386.791 152.197 387.085 153.077V156.45C386.791 157.33 386.791 158.503 386.205 159.383C385.618 160.85 384.738 162.023 383.858 163.05C382.392 164.809 380.925 166.129 379.312 167.302C376.966 169.062 374.766 170.675 372.126 171.849C371.246 172.142 370.366 172.435 369.486 173.022C368.607 173.315 367.727 173.608 367.14 174.195C366.26 174.488 365.673 175.075 365.087 175.662C363.62 176.835 362.447 178.595 362.007 180.208C361.421 181.674 361.421 183.287 361.421 185.047C361.421 187.1 362.007 188.714 362.594 190.473C362.887 191.353 363.474 192.526 364.06 193.406C364.647 194.286 364.94 195.166 365.527 196.339C366.113 197.219 366.407 197.806 366.993 198.686C366.993 198.979 367.287 199.272 367.287 199.566V200.739C367.287 201.032 367.287 201.032 366.993 201.326C366.993 201.619 366.7 201.912 366.7 201.912C365.82 203.085 364.647 203.965 363.62 204.992L359.368 207.632C355.995 209.098 352.475 210.271 348.809 210.565C347.049 210.858 345.729 210.858 343.969 211.151C342.503 211.444 341.036 211.738 340.01 211.738H336.343C333.997 211.738 332.09 213.791 332.09 215.991C332.09 218.337 334.144 220.244 336.343 220.244H339.423C340.596 220.244 342.063 219.95 343.089 219.657C344.849 219.364 346.169 219.07 347.929 218.777C349.982 218.484 351.595 218.19 353.648 217.897C355.701 217.604 357.314 217.017 359.074 216.137C361.127 215.551 363.034 214.671 365.087 213.498C367.433 212.324 369.046 210.858 371.1 209.245C373.153 207.485 374.766 205.578 375.646 203.232C376.819 200.299 376.526 196.926 375.352 194.14C374.766 192.673 373.593 191.207 373.006 190.18L371.246 186.807C370.953 186.22 370.953 185.927 370.953 185.341V183.581C370.953 183.287 370.953 183.287 371.246 182.994C371.246 182.701 371.54 182.701 371.54 182.408C371.833 182.114 371.833 181.821 372.126 181.821C372.419 181.528 373.006 181.234 373.299 181.234L377.552 179.475C379.312 178.595 380.632 177.715 382.098 176.835C383.858 175.662 385.471 174.195 387.231 173.169C388.698 171.995 390.164 170.822 391.191 169.502C393.831 166.423 395.737 162.903 396.324 158.65C396.617 156.304 396.91 154.104 396.617 151.464C396.324 149.998 395.737 148.531 395.444 147.211V144.718C395.737 143.545 395.737 142.372 395.15 141.345C394.564 140.465 393.684 139.585 392.511 139.292H391.337C388.404 139.585 386.498 140.612 386.205 142.665ZM355.848 112.308C354.675 112.602 353.795 113.482 353.208 114.361C352.622 115.241 352.328 116.708 352.915 117.734C354.088 120.667 354.968 123.161 355.261 126.387C355.261 127.56 355.555 128.733 355.261 129.467C354.968 130.346 354.968 131.226 354.381 131.813C353.795 133.279 352.915 134.453 352.328 135.479C351.155 137.239 349.982 139.146 349.249 141.199C348.662 142.372 348.369 143.252 348.662 144.572C348.955 145.745 349.835 146.625 350.715 147.211C352.768 148.385 355.555 147.798 356.728 145.745C357.901 143.105 359.661 140.905 360.981 138.266C361.861 137.092 362.154 135.919 362.741 134.599C363.034 133.426 363.62 132.546 363.62 131.52C364.5 126.094 363.034 120.667 360.981 115.535C360.687 114.361 360.101 113.482 358.928 112.895C358.341 112.602 357.461 112.308 356.581 112.308H355.848ZM123.259 334.045C121.206 334.631 119.593 335.511 117.54 336.098C115.194 336.684 113.287 337.271 110.941 337.858C106.688 338.738 102.288 339.911 98.0354 340.497C96.5689 340.791 95.1024 340.791 93.7825 341.084H94.0758C90.1163 341.671 85.7167 342.257 81.7572 341.964C77.5043 341.964 73.1047 341.377 68.8519 341.084C67.3854 340.791 66.2122 340.497 65.1856 340.204C62.8392 339.617 60.6394 340.791 60.0528 343.137C59.4662 345.483 60.6394 347.977 62.9858 348.27C68.4119 349.443 74.1313 350.03 79.8507 350.323C82.4904 350.616 84.9835 350.616 87.6232 350.323C90.5562 350.03 93.3426 349.736 96.4223 349.15C99.062 348.856 101.262 348.563 103.901 347.977L111.674 346.217C114.314 345.63 116.807 345.337 119.153 344.457C121.5 343.87 123.699 342.697 126.046 342.111C128.392 341.231 129.712 339.177 129.125 336.978C128.539 335.218 126.779 333.898 125.166 333.898C124.139 334.045 123.553 334.045 123.259 334.045ZM95.8356 349.296H95.5424C95.5424 349.443 95.5423 349.443 95.8356 349.296Z" fill="white"/>
<path d="M122.379 335.804C121.499 336.684 120.913 337.858 121.206 338.884C121.206 339.764 121.499 340.937 121.499 341.817C121.793 344.897 122.379 348.123 122.966 351.203C123.553 354.282 124.433 357.802 125.312 360.882C126.192 363.961 126.779 367.188 127.659 370.267C127.952 372.027 128.539 373.64 128.832 375.107C129.125 376.867 129.712 378.48 130.005 380.24C130.592 382.586 133.085 383.906 135.138 383.173C137.484 382.586 138.804 380.093 138.071 378.04C137.191 375.107 136.605 372.321 136.018 369.388C135.431 366.454 134.845 363.668 133.965 360.735C133.378 357.802 132.498 355.016 131.618 352.083C131.032 349.443 130.445 346.657 130.152 344.017C129.859 342.55 129.859 341.084 129.565 339.764V338.591C129.565 337.418 129.272 336.244 128.392 335.511C127.512 334.631 126.339 334.338 125.312 334.338C124.433 334.631 123.259 335.218 122.379 335.804Z" fill="white"/>
<path d="M130.739 382.44C130.446 383.026 129.859 383.906 129.566 384.493L127.806 387.132C126.633 388.599 125.753 389.772 124.433 390.799C123.26 391.972 122.087 393.145 120.767 394.172C118.714 395.638 116.808 396.518 114.754 397.545C112.408 398.718 110.208 400.184 107.862 400.918C105.809 401.798 103.902 402.384 101.849 403.264C99.5027 404.144 97.303 405.024 94.6632 405.904C90.1171 407.37 85.5709 408.837 80.5848 409.57C75.7453 410.157 70.9058 410.45 66.0663 410.743C60.9335 411.037 55.5074 411.037 50.3746 410.743C49.788 410.743 49.2014 410.45 48.6148 410.45C47.4416 410.157 46.2684 410.157 45.2419 410.743C44.362 411.33 43.4821 412.21 43.1888 413.383C42.8955 414.556 42.8954 415.729 43.482 416.756C44.0687 417.636 44.9486 418.516 46.1218 418.809C48.7615 419.396 51.2546 419.396 53.8943 419.689H60.4936C64.7465 419.689 68.8527 419.102 73.1056 418.809C77.6517 418.516 82.1979 418.222 86.8908 417.049C91.1436 416.169 95.2499 414.703 99.2094 413.383C101.263 412.796 103.169 411.916 105.222 411.037C107.569 410.157 109.475 409.57 111.821 408.397C115.488 406.637 119.301 404.437 122.967 402.384C126.34 400.331 128.98 397.838 131.619 394.905C133.966 392.558 135.579 390.065 137.045 387.132C137.339 386.546 137.925 385.666 137.925 385.079C138.805 382.733 137.045 380.533 134.992 379.946C134.699 379.946 134.112 379.653 133.819 379.653C132.939 379.8 131.473 380.973 130.739 382.44ZM151.857 326.272L148.484 327.152C147.311 327.445 145.844 327.739 144.818 328.325C143.058 328.912 141.738 329.205 139.978 329.499C138.219 330.085 136.605 330.378 134.552 330.672C134.846 330.672 135.432 330.672 135.726 330.378C133.672 330.672 131.766 330.965 129.713 331.552C127.953 331.845 126.34 332.138 124.873 332.432C123.7 332.725 122.82 333.605 122.234 334.485C121.647 335.365 121.354 336.831 121.94 337.858C122.234 339.031 123.114 339.911 123.993 340.497C125.167 341.084 126.047 341.084 127.366 341.084C128.833 340.791 130.446 340.497 131.913 340.204C133.672 339.911 134.992 339.324 136.752 339.031C136.459 339.031 135.872 339.031 135.579 339.324C137.925 339.031 140.125 338.738 142.471 337.858C144.231 337.271 145.844 336.978 147.898 336.391C149.364 335.805 150.831 335.511 152.15 335.218C152.444 335.218 152.737 334.925 153.03 334.925C153.617 336.684 153.91 338.298 154.204 340.057C154.204 340.937 154.497 341.817 154.497 342.697C154.79 344.164 154.79 345.63 155.083 346.95C155.377 348.123 155.67 349.59 155.963 350.616C156.55 353.256 156.843 355.749 157.43 358.682C158.016 361.322 158.603 363.522 159.19 366.161C159.776 368.508 160.363 370.707 160.95 373.347C161.536 375.694 164.029 376.72 166.082 376.28C167.256 375.987 168.135 375.107 168.722 374.227C169.309 373.054 169.309 372.174 169.309 370.854C168.722 368.508 168.135 366.601 167.549 364.255C166.962 361.908 166.376 359.415 165.789 357.069C165.202 354.429 164.909 352.229 164.322 349.59C164.029 348.417 164.029 346.95 163.736 345.923C163.443 344.457 163.149 343.284 162.856 341.964V342.257C162.856 341.671 162.563 340.791 162.563 340.204C162.563 340.497 162.563 341.084 162.856 341.377C162.563 338.298 161.976 334.778 160.803 331.698L159.923 329.059C159.336 327.885 158.456 327.005 157.577 326.419C156.99 325.832 155.817 325.832 154.937 325.832C153.91 325.832 153.03 325.979 151.857 326.272Z" fill="white"/>
<path d="M162.415 373.494L162.708 373.2C162.122 373.494 161.535 374.08 160.655 374.373C158.602 375.253 156.989 375.84 154.936 376.427C152.589 377.013 150.39 377.6 148.337 378.186C146.283 378.773 144.67 379.36 142.617 379.653C140.857 379.946 139.244 380.533 137.778 380.826H137.484C136.311 380.826 135.138 381.119 134.405 381.999C133.525 382.879 133.231 384.052 133.231 385.079C133.231 386.252 133.818 387.425 134.405 388.159C135.285 389.039 136.458 389.625 137.484 389.332C138.951 389.039 140.564 389.039 142.031 388.745C143.204 388.452 144.377 388.159 145.403 388.159C147.75 387.572 150.243 386.692 152.589 386.106C155.229 385.226 158.015 384.639 160.655 383.759C163.588 382.879 166.081 381.706 168.428 380.093C169.308 379.506 169.601 378.04 169.601 377.013C169.601 375.84 169.014 374.667 168.428 373.933C167.548 373.054 166.375 372.76 165.348 372.76C163.882 372.614 163.002 372.907 162.415 373.494ZM160.362 374.667C160.362 374.667 160.069 374.667 160.069 374.96C160.215 374.667 160.215 374.667 160.362 374.667ZM142.47 343.723C141.297 344.017 140.417 344.897 139.831 345.776C139.244 346.95 139.244 347.83 139.244 349.149C139.831 352.522 140.417 356.042 141.591 359.122C141.884 360.295 142.47 361.175 143.644 361.761C144.524 362.348 145.99 362.641 147.017 362.348C149.07 361.761 150.683 359.268 149.95 357.215C148.776 354.136 148.19 350.616 147.603 347.243C147.31 346.07 146.43 345.19 145.55 344.603C144.964 344.31 144.084 344.017 143.204 344.017C143.204 343.577 142.764 343.723 142.47 343.723ZM195.558 316.886C193.798 316.886 192.185 317.18 190.425 318.059C190.132 318.059 189.839 318.353 189.839 318.353H190.132C189.839 318.646 189.252 318.646 188.959 318.939C186.026 320.113 183.239 321.579 180.306 322.899C179.133 323.486 177.667 324.365 176.64 324.952C175.467 325.832 174 326.419 172.681 327.298C171.507 327.885 170.041 328.472 169.014 329.352C167.841 329.938 166.668 330.818 165.641 331.405L162.268 333.165C160.509 334.044 159.189 335.511 158.015 336.537C156.256 338.004 156.256 341.084 158.015 342.55C159.775 344.31 162.268 344.017 164.028 342.55C164.615 341.964 165.201 341.67 165.788 341.084C166.375 340.497 167.254 340.204 168.134 339.91C169.308 339.324 170.188 338.737 171.214 338.151C172.094 337.564 172.974 336.977 174.147 336.391L177.52 334.631C179.866 333.458 181.773 331.991 184.119 330.965C186.466 329.792 188.372 328.618 190.719 327.885C191.305 327.592 192.185 327.298 192.772 327.005C192.478 327.298 192.185 327.298 191.599 327.592C192.185 327.298 193.065 327.005 193.652 326.712C193.358 327.005 193.065 327.005 192.478 327.298L195.118 326.419C196.878 326.125 198.491 326.125 200.544 326.419L203.917 327.298C205.384 327.592 206.85 327.885 208.463 328.178C209.93 328.472 211.103 329.058 212.423 329.645C213.596 329.938 214.769 330.525 215.796 331.111C216.969 331.698 217.849 331.991 218.876 332.578C221.809 333.751 224.595 334.924 227.675 335.218C231.048 335.804 234.567 335.804 237.94 335.804C239.407 335.804 240.873 335.804 242.193 335.511C243.073 335.218 243.953 334.924 245.126 334.924C247.179 334.338 249.086 333.751 251.139 333.458H256.565L257.152 334.044C257.152 334.338 257.152 334.631 257.445 334.631V337.271C257.445 337.564 257.152 337.564 257.152 337.857C255.978 339.91 256.858 342.697 258.618 343.87C260.671 345.043 263.164 344.163 264.631 342.403C265.217 341.23 265.804 340.057 266.097 339.031C266.391 337.857 266.391 336.977 266.391 335.951C266.391 334.778 266.391 333.898 266.097 332.871C266.097 332.285 265.804 331.991 265.804 331.405C265.511 330.525 265.217 329.938 264.924 329.352C263.458 327.298 261.551 325.392 258.911 325.099C256.858 324.805 254.952 324.805 252.899 325.099C250.259 325.099 247.766 325.685 245.419 326.272C243.66 326.565 241.753 327.445 239.993 327.738C238.234 328.032 236.62 327.738 235.154 327.738C233.101 327.738 231.194 327.445 228.848 327.152C226.795 326.858 224.595 325.979 222.542 325.392C221.075 324.805 219.902 324.219 218.582 323.632C217.409 323.046 216.236 322.752 215.209 322.166C214.036 321.579 212.57 321.286 211.543 320.699C210.077 320.406 208.903 320.113 207.584 319.819C204.944 319.233 202.451 318.353 199.518 318.353H198.638C197.611 316.886 196.438 316.886 195.558 316.886ZM189.399 318.353C189.105 318.353 189.105 318.353 188.812 318.646C189.105 318.646 189.399 318.353 189.399 318.353ZM188.812 318.646C188.519 318.646 188.226 318.939 187.932 318.939C188.226 318.939 188.519 318.939 188.812 318.646ZM222.249 323.779C222.542 323.779 222.542 323.779 222.249 323.779V323.779ZM258.031 332.871C258.325 333.164 258.325 333.458 258.618 333.458L258.031 332.871ZM219.316 331.845C219.022 331.551 219.316 331.551 219.316 331.845C219.022 331.845 219.022 331.845 219.022 331.551L219.316 331.845Z" fill="white"/>
<path d="M256.566 336.098C256.273 336.685 255.686 336.978 255.393 337.565C254.806 338.151 254.219 338.444 253.34 339.031L249.967 340.791C249.673 340.791 249.38 341.084 249.087 341.084C249.38 340.791 249.673 340.791 250.26 340.791C249.673 341.084 249.38 341.084 248.793 341.377C248.207 341.671 247.62 341.964 247.033 341.964C246.74 342.257 246.154 342.257 245.86 342.551C245.567 342.551 245.274 342.844 244.98 342.844C243.807 343.431 242.341 343.724 241.021 344.017C238.968 344.604 237.355 345.19 235.301 345.484C232.955 345.777 230.755 345.484 228.116 345.484C226.942 345.484 225.769 345.484 224.743 345.19C223.863 345.19 222.983 345.19 222.103 344.897C221.223 344.897 220.636 344.604 219.756 344.31L216.383 343.431C214.037 342.844 212.131 342.257 209.784 341.671C208.904 341.084 207.731 340.791 206.851 340.498C205.091 340.204 203.771 340.204 202.012 339.911C199.665 339.618 197.759 341.964 197.759 344.164C197.759 345.337 198.345 346.51 198.932 347.244C199.812 348.123 200.985 348.417 202.012 348.417C202.598 348.417 203.478 348.417 204.065 348.71C204.651 348.71 205.531 349.003 206.118 349.297C207.584 349.883 209.051 350.47 210.371 350.763C211.691 351.056 213.304 351.35 214.624 351.936C215.797 352.23 217.263 352.523 218.583 352.816C219.903 353.11 221.516 353.403 223.129 353.403C224.596 353.403 226.062 353.696 227.089 353.696H231.635C233.395 353.696 235.008 353.696 237.061 353.403C238.528 353.11 239.994 352.816 241.314 352.23C242.487 351.936 243.954 351.643 244.98 351.056C246.154 350.763 247.034 350.47 247.913 349.883C248.207 349.883 248.207 349.59 248.5 349.59L250.26 348.71C250.553 348.71 250.846 348.417 251.14 348.417C251.726 348.123 252.313 348.123 252.606 347.83C252.313 347.83 252.02 348.123 251.726 348.123L253.486 347.244C253.486 347.244 253.193 347.243 253.193 347.537C254.659 346.95 256.273 346.07 257.739 345.19C258.326 344.897 258.912 344.31 259.499 344.017C260.085 343.724 260.672 343.137 260.965 342.844C261.552 342.551 261.845 341.964 262.432 341.377C263.312 340.498 263.605 339.618 263.605 338.298C263.605 337.125 263.018 335.951 262.432 335.218C261.552 334.338 260.379 334.045 259.352 334.045C258.619 334.925 257.152 335.218 256.566 336.098Z" fill="white"/>
<path d="M286.631 311.167C283.698 311.754 280.912 312.34 278.272 313.22C277.099 313.807 275.632 314.1 274.606 314.687C273.433 314.98 271.966 315.567 270.94 315.86L266.687 316.74C265.513 317.033 264.047 317.62 263.02 317.913C260.674 318.793 258.181 319.38 255.834 320.259C254.368 320.846 252.755 321.139 251.288 321.726C249.822 322.313 248.209 322.313 246.742 322.899C243.662 323.779 240.436 324.366 237.356 324.952C236.77 324.952 236.183 325.246 235.89 325.246C234.13 325.539 232.517 325.246 230.757 325.246C229.877 324.952 228.997 324.952 228.117 324.659C227.531 324.659 226.944 324.366 226.358 324.366C225.771 324.366 225.184 324.072 224.598 323.779C223.425 323.486 221.958 323.192 220.932 322.899C219.465 322.606 217.999 322.019 216.679 321.433C215.505 321.139 214.332 321.433 213.306 322.019C212.426 322.606 211.546 323.486 211.253 324.659C210.959 325.832 210.959 327.005 211.839 328.032C212.426 329.205 213.306 329.498 214.479 330.085L219.612 331.845C220.198 332.138 221.078 332.138 221.665 332.432C222.251 332.725 223.131 333.018 223.718 333.018C225.184 333.311 226.651 333.605 227.678 333.898C229.731 334.485 231.93 334.485 233.983 334.485C236.037 334.485 237.943 334.191 239.996 333.898C241.756 333.605 243.369 333.311 245.129 332.725C248.209 332.138 251.142 331.258 254.221 330.672C255.688 330.378 257.301 329.792 258.767 329.205C259.941 328.912 261.407 328.325 262.434 328.032C263.02 327.739 263.607 327.739 264.194 327.445C264.78 327.152 265.367 327.152 266.247 326.859C267.42 326.565 268.593 325.979 269.913 325.686C272.553 325.099 275.339 324.512 277.979 323.632C279.152 323.339 280.619 322.753 281.645 322.166C283.112 321.579 284.285 321.286 285.605 320.993L289.858 320.113H292.204C292.791 320.113 293.67 320.113 294.257 320.406C294.844 320.406 295.43 320.699 295.724 320.699C296.31 320.993 296.603 321.286 297.19 321.579L298.363 322.753C298.363 323.046 298.657 323.046 298.657 323.339C298.95 323.926 298.95 324.512 299.243 325.099V325.686C299.243 325.979 298.95 326.272 298.95 326.859C298.657 327.739 298.07 328.619 297.483 329.498C297.19 329.792 296.897 330.085 296.31 330.378C295.43 330.965 294.257 331.552 293.377 332.432C292.497 333.018 291.617 333.605 290.444 334.191C289.564 334.778 288.684 335.071 287.804 335.658C286.925 336.244 286.045 336.538 285.165 337.124C283.991 337.711 283.112 338.004 282.085 338.591C280.912 339.177 279.739 339.764 279.005 340.351C276.659 341.524 274.752 343.284 272.699 344.604C271.233 345.483 269.766 346.363 268.446 347.537C266.393 349.003 264.78 350.47 263.02 352.083C261.847 353.549 260.381 354.722 259.354 356.042C258.768 356.922 258.181 357.802 257.301 358.389C256.421 358.975 255.248 359.562 254.368 360.149C251.288 361.322 248.062 362.202 244.689 362.495C243.516 362.788 242.636 363.668 242.049 364.548C241.463 365.428 241.169 366.895 241.756 367.921C242.049 369.094 242.929 369.974 243.809 370.561C244.982 371.147 245.862 371.147 247.182 371.147C250.555 370.561 253.781 369.974 256.861 368.508C259.207 367.628 261.701 366.455 263.46 364.841C264.047 364.255 264.34 363.668 264.927 363.082C265.513 362.495 266.1 361.615 266.687 361.028C268.446 359.269 270.06 357.362 272.113 355.602C273.286 354.722 274.166 354.136 275.192 353.256C276.366 352.669 277.246 351.789 278.272 351.203C280.619 349.736 282.525 348.27 284.871 347.243C286.925 346.07 288.831 345.19 290.884 344.31C292.644 343.43 294.257 342.55 295.724 341.377C296.897 340.791 298.07 339.911 298.803 339.031C299.976 338.151 301.15 337.564 302.176 336.391C303.643 334.925 304.816 333.311 305.549 331.258C306.136 330.085 306.429 328.912 306.722 327.885C306.722 327.005 307.016 326.126 307.016 325.246C307.016 324.366 306.722 323.486 306.722 322.606C306.136 319.966 304.963 318.06 303.349 316.3C301.296 314.247 298.803 312.927 295.87 312.634C294.404 312.34 292.937 312.34 291.617 312.047H290.737C289.124 310.874 287.804 311.167 286.631 311.167Z" fill="white"/>
<path d="M244.367 364.329C243.487 364.622 242.9 364.915 242.02 365.209C241.14 365.502 240.26 365.502 239.38 365.795C238.207 366.089 237.327 366.089 236.301 366.382C235.128 366.675 233.954 366.968 232.635 367.262C230.581 367.848 228.675 368.142 226.329 368.728C224.275 369.022 222.369 369.022 220.316 369.022H208.29C206.237 369.022 204.331 369.315 202.278 369.315C198.318 369.315 194.212 369.315 190.252 368.728C188.199 368.435 186.293 368.142 184.24 368.142C182.48 368.142 180.573 368.142 178.52 368.435C177.054 368.435 175.441 368.728 173.974 369.022C171.041 369.315 168.548 369.315 165.615 369.315C163.269 369.315 161.362 371.368 161.362 373.568C161.362 375.914 163.415 377.821 165.615 377.821H171.041C172.801 377.821 174.414 377.527 176.174 377.234C179.84 376.647 183.653 376.647 187.026 377.234C190.986 377.821 195.092 377.821 199.051 377.821C203.011 377.821 207.117 377.527 211.077 377.527H223.396C226.329 377.527 229.408 376.941 232.195 376.354C234.834 375.768 237.327 374.888 239.967 374.301C241.14 374.008 242.314 374.008 243.34 373.714C244.807 373.421 245.98 372.835 247.3 372.248C248.18 371.955 249.059 370.488 249.353 369.608C249.646 368.435 249.646 367.262 248.766 366.235C248.18 365.355 247.3 364.475 246.126 364.182C245.833 364.182 245.54 363.889 244.953 363.889C245.247 364.035 244.953 364.035 244.367 364.329ZM346.729 0.927559C345.263 0.927559 344.383 1.51417 343.649 2.10077C342.769 2.98068 342.476 3.86058 342.476 5.18044V6.06034C342.183 8.11346 341.89 10.3132 341.596 12.3663C341.303 14.4195 341.01 16.0326 340.13 18.0857L339.25 19.8455L338.077 21.0187C337.49 21.312 336.903 21.6054 336.61 21.8987C334.264 22.7786 332.064 23.0719 329.717 23.6585H328.984C328.398 23.6585 327.811 23.3652 327.224 23.3652C326.051 23.0719 324.878 23.0719 323.851 22.7786C322.678 22.7786 321.798 22.7786 320.772 23.0719C318.132 23.3652 316.519 26.1515 317.399 28.498C317.985 30.5511 319.745 31.5776 321.652 31.8709C323.705 32.4575 325.905 32.1642 327.958 32.1642C328.251 32.1642 328.838 32.4575 329.131 32.4575C330.597 33.0441 331.771 33.924 333.09 34.8039C334.264 35.6838 335.73 36.2705 336.757 37.1504L338.517 38.9102C338.81 39.2035 339.103 39.7901 339.103 40.0834C340.276 43.0164 340.863 45.8028 341.45 48.7358C341.45 49.909 341.743 50.7889 342.036 51.8155C342.036 52.9887 342.329 54.1619 342.623 54.8951C342.623 55.4817 342.623 56.0683 342.916 56.6549C343.209 57.5349 343.503 58.7081 344.383 59.2947C345.263 60.1746 346.142 60.4679 347.462 60.4679C348.635 60.4679 349.515 59.8813 350.542 59.2947C352.008 58.1215 352.008 56.215 352.302 54.7485C352.302 53.8686 352.302 52.9887 352.595 51.8155C352.888 49.469 353.768 47.2693 354.648 44.9229C355.235 43.7497 355.821 42.8698 356.408 41.9898C357.581 40.5233 359.048 39.3501 360.368 38.3236C362.421 36.8571 364.327 35.6838 366.674 34.9506C366.967 34.9506 367.26 34.6573 367.847 34.364C368.14 34.364 368.433 34.0707 368.727 34.0707C369.02 34.0707 369.313 33.7774 369.9 33.4841C370.486 33.1908 370.78 33.1908 371.366 32.8975C371.953 32.6042 372.246 32.3109 372.54 32.0176C373.42 31.1377 373.713 30.2578 374.006 28.9379C374.006 27.4714 373.126 25.8582 371.953 25.2716C370.78 24.685 369.607 24.685 368.58 24.685H366.527C365.94 24.685 365.647 24.3917 365.06 24.3917C364.474 24.0984 364.181 23.8051 363.594 23.5118C361.834 22.0453 360.661 20.4321 359.341 18.9656C358.168 17.2058 356.995 15.5927 356.261 13.5395C355.675 12.073 355.088 10.8998 354.795 9.57997V5.32709C355.088 2.98067 352.742 1.07421 350.542 1.07421C347.902 0.634255 347.316 0.634257 346.729 0.927559ZM341.303 28.9379C342.476 28.3513 343.356 27.4714 344.236 26.8848C345.116 26.0049 345.996 24.8317 346.876 23.8051C347.462 22.9252 348.049 21.752 348.342 20.8721C348.342 20.5788 348.635 20.5788 348.635 20.2855C349.515 21.752 350.395 22.9252 351.275 23.9518L350.982 23.6585L353.622 27.0314L356.261 29.6712C355.968 29.9645 355.675 30.2578 355.088 30.2578C352.448 32.0176 350.249 33.924 348.489 36.2705C348.195 36.8571 347.609 37.4437 347.316 38.0303C347.316 37.737 347.022 37.4437 347.022 37.1504C346.729 36.2705 346.142 35.0972 345.556 34.5106C344.969 33.6307 344.383 32.7508 343.503 32.1642C342.623 31.2843 341.45 30.1111 340.423 29.5245C340.716 29.2312 341.01 28.9379 341.303 28.9379ZM341.01 50.3489V50.6423C341.303 50.6423 341.303 50.6423 341.01 50.3489ZM420.348 68.6803C420.348 71.0267 420.055 73.2265 419.761 75.5729C419.761 75.2796 419.761 74.693 420.055 74.3997C420.055 74.9863 420.055 75.5729 419.761 75.8662C419.468 77.0394 419.468 77.9193 419.175 78.9459V78.066C418.588 80.999 418.295 84.0787 417.121 86.7184C416.535 87.5983 416.242 88.4782 415.655 89.3581L414.775 90.238C413.015 91.4112 411.402 92.5844 409.642 93.3177C409.056 93.611 408.469 93.611 407.882 93.9043C406.416 93.9043 405.243 93.9043 403.923 94.1976L401.283 95.0775C399.817 95.6641 398.35 97.4239 398.643 99.0371C398.643 100.797 399.817 102.703 401.723 102.997C403.19 103.29 404.656 102.997 405.976 102.703C406.856 102.41 407.736 102.41 408.616 102.117H409.789C411.549 102.41 413.162 102.703 414.628 103.29C415.508 103.583 416.095 104.17 416.682 104.463C417.268 104.756 417.561 105.343 417.855 105.636L418.735 107.396C419.321 108.569 419.615 109.743 419.615 110.769C419.615 111.649 419.908 112.236 419.908 113.116V112.529C420.201 114.289 420.201 116.195 420.201 117.955C420.201 120.008 420.201 121.915 420.494 123.968C420.788 124.848 421.081 125.728 421.668 126.314C422.548 127.194 423.427 127.487 424.747 127.487C425.921 127.487 427.094 126.901 427.827 126.314C429 125.141 429.294 123.674 429.587 122.355C429.88 120.008 430.173 118.102 430.467 115.755C430.76 113.702 431.053 111.796 431.64 110.036C431.933 107.983 432.52 106.37 433.106 104.317C433.4 103.73 433.693 103.143 434.28 102.557C434.573 102.263 434.866 101.97 435.453 101.677C436.626 100.797 437.799 100.21 438.826 99.6237C439.999 99.0371 441.466 98.7438 442.492 98.4505L445.865 97.5706C447.332 97.2773 448.505 96.3974 448.945 95.2242C450.118 93.1711 449.531 90.0914 447.185 89.2115C446.012 88.6249 444.839 88.3316 443.812 88.0383C442.052 87.1583 440.732 86.2785 439.266 85.3986C437.213 84.2253 435.599 83.0521 433.546 82.0256L432.373 80.8524C431.787 80.2658 431.493 79.3858 431.2 78.5059C430.907 77.9193 430.907 77.3327 430.613 76.7461C430.32 74.3997 430.613 71.9067 430.613 69.5602C430.613 67.8004 429.733 66.4806 427.974 65.894C427.387 64.1342 425.627 62.9609 424.014 62.9609C422.254 64.4275 420.494 66.4806 420.348 68.6803ZM421.374 96.544C422.254 95.9574 422.841 95.0775 423.427 94.1976C424.601 92.4378 425.187 90.8246 426.067 89.0648C426.067 88.7715 426.361 88.4782 426.361 87.8916L428.12 89.6514C430.173 91.4112 432.373 92.5844 434.426 93.611C433.546 94.1976 432.373 94.4909 431.493 95.0775C430.613 95.6641 430.027 96.2507 429.147 96.8373C428.267 97.4239 427.68 98.3038 427.094 99.1837C426.214 100.064 425.627 101.237 425.334 102.263C425.041 101.97 424.747 101.384 424.454 101.09C423.281 99.917 422.108 98.7438 421.081 98.0105C420.788 97.7172 420.494 97.7172 420.201 97.4239C420.494 96.984 421.081 96.6907 421.374 96.544ZM439.706 100.504C439.706 100.504 439.412 100.504 439.412 100.797L439.706 100.504ZM431.2 115.902V117.075C430.907 116.782 431.2 116.195 431.2 115.902ZM271.204 115.022C271.204 117.662 270.91 120.155 270.617 122.795C270.617 122.501 270.617 121.915 270.91 121.621C270.324 124.994 270.031 128.514 269.737 132.18L268.857 136.433C268.564 138.193 268.271 139.513 267.684 141.273C267.391 141.566 267.391 142.152 267.098 142.446L265.338 144.206C263.871 145.379 262.405 146.259 260.792 147.139H259.618C257.565 147.139 255.659 147.139 253.606 147.432C252.726 147.432 251.846 147.432 250.673 147.725H249.206C248.033 147.725 247.153 148.019 246.273 148.312C244.807 148.898 244.22 150.658 244.22 151.978C244.22 153.445 245.1 154.911 246.273 155.644C246.86 155.938 247.74 156.231 248.326 156.231C249.499 156.524 250.673 156.524 251.699 156.818C253.752 157.111 255.659 157.111 257.419 156.818C258.592 156.524 259.765 156.524 260.792 156.231C261.085 156.231 261.671 155.938 261.965 155.938H262.551C263.431 156.231 264.311 156.231 265.191 156.524C266.364 157.111 267.537 157.697 268.564 158.577L269.444 159.457C270.031 160.337 270.617 161.217 270.91 162.097C271.497 163.857 271.79 165.177 272.084 166.937L272.964 171.189C273.257 172.949 273.257 174.562 273.55 176.029C273.55 177.202 273.55 178.082 273.843 179.109C273.843 180.575 274.723 182.042 275.897 182.775C277.656 183.655 279.856 183.655 281.029 182.188C282.203 181.015 282.496 179.548 282.789 177.935C283.082 176.469 283.376 174.856 283.669 173.389C284.256 170.456 284.549 167.376 285.722 164.59C286.602 162.83 287.482 161.217 288.655 159.457C289.828 157.991 291.002 156.818 292.028 155.791C292.908 155.204 293.788 154.618 294.375 154.325C295.841 153.738 297.014 153.445 298.334 153.151C299.214 153.151 300.387 152.858 301.267 152.858C302.147 152.858 303.32 153.151 304.2 153.151C305.667 153.151 307.133 152.858 308.16 151.685C310.213 149.925 309.626 146.259 307.28 144.792C306.107 144.206 304.64 144.206 303.32 144.206H301.56C300.094 143.912 298.627 143.326 297.308 143.032C295.548 142.739 294.228 142.152 292.468 141.566C291.588 140.979 290.415 140.686 289.535 139.806C288.655 138.926 287.775 138.34 287.189 137.46C286.309 136.286 285.429 134.82 284.842 133.5C283.962 131.447 283.962 129.247 283.376 127.194C283.082 126.314 282.789 125.434 282.789 124.554C282.496 123.968 282.496 123.088 282.496 122.501C282.496 121.915 282.203 121.035 282.203 120.448C282.203 118.688 281.323 117.368 279.856 116.782V115.022C279.856 112.676 277.803 110.769 275.603 110.769C273.257 110.769 271.497 112.822 271.204 115.022ZM275.163 145.379C276.043 143.326 276.63 141.126 277.216 138.78C277.216 138.486 277.51 138.193 277.51 137.606C278.39 139.659 279.563 141.566 280.883 143.326C282.056 144.792 283.522 145.965 284.842 146.992C285.722 147.579 286.309 148.165 287.189 148.458C285.429 149.632 284.109 151.098 282.643 152.711C281.763 153.885 280.589 155.058 279.71 156.378C279.416 156.964 278.83 157.551 278.536 158.431C277.95 156.964 277.07 155.498 276.19 154.471C275.603 153.591 275.017 152.711 274.137 152.125C273.257 151.245 272.377 150.658 271.497 150.072H271.204C272.964 148.605 274.43 147.432 275.163 145.379ZM2.24576 125.434C1.36586 126.021 0.48596 126.901 0.192658 128.074C-0.100644 129.247 -0.100648 130.42 0.485956 131.447C1.07256 132.327 1.95247 133.207 3.12568 133.5C5.4721 134.087 7.67186 134.38 10.0183 134.967H9.43168C11.7781 135.26 13.9779 135.846 16.3243 136.433C18.6707 137.313 20.8704 135.846 21.7504 133.5C22.337 131.154 21.1637 128.954 18.8173 128.074C17.3508 127.487 15.8843 127.194 14.5645 126.901C13.2446 126.607 11.4848 126.314 10.0183 126.021L5.7654 125.141C5.1788 125.141 4.8855 124.848 4.29889 124.848C3.41899 124.848 2.83237 125.141 2.24576 125.434ZM9.43168 134.527H9.13836C9.13836 134.233 9.43168 134.527 9.43168 134.527ZM10.8982 94.4909C9.72498 96.544 10.3116 99.3304 12.3647 100.504C16.9109 103.143 21.4571 105.636 25.5633 109.156C26.1499 109.743 26.7365 110.329 27.3231 110.623C28.203 111.502 29.0829 112.089 30.2561 112.089C31.4293 112.089 32.6025 111.796 33.3358 110.916C34.069 110.036 34.8023 109.156 34.8023 107.983C34.8023 106.81 34.509 105.636 33.6291 104.903C32.1626 103.73 30.6961 102.263 29.3762 101.237C27.9097 100.064 26.7365 99.1837 25.4166 98.3038C22.4836 96.544 19.9905 94.9309 17.0575 93.4644C16.1776 93.1711 15.591 92.8777 14.7111 92.8777C13.0979 92.4378 11.7781 93.0244 10.8982 94.4909ZM44.0413 71.0267C41.9882 72.2 41.1083 74.693 42.2815 76.7461C43.748 79.3858 45.2145 81.8789 46.2411 84.5186C46.5344 85.3985 47.7076 86.2784 48.8808 86.5717C50.054 86.865 51.2272 86.8651 52.2538 86.2785C53.1337 85.6918 54.0136 84.8119 54.3069 83.6387C54.6002 82.4655 54.6002 81.2923 54.0136 80.2658C52.8404 77.6261 51.0806 75.133 50.054 72.4933C49.1741 71.0267 47.7076 70.1468 46.3877 70.1468C45.5078 70.4401 44.6279 70.7335 44.0413 71.0267Z" fill="white"/>
</svg>
